<?xml version="1.0" encoding="utf-8"?>
<!-- Generator: Adobe Illustrator 16.0.0, SVG Export Plug-In . SVG Version: 6.00 Build 0)  -->
<!DOCTYPE svg PUBLIC "-//W3C//DTD SVG 1.1//EN" "http://www.w3.org/Graphics/SVG/1.1/DTD/svg11.dtd">
<svg version="1.1" id="Layer_1" xmlns="http://www.w3.org/2000/svg" xmlns:xlink="http://www.w3.org/1999/xlink" x="0px" y="0px"
	 width="27.384px" height="27.387px" viewBox="0 0 27.384 27.387" enable-background="new 0 0 27.384 27.387" xml:space="preserve">
<path fill="#FFFFFF" d="M22.821,0H4.565C2.053,0-0.001,2.057-0.001,4.564v18.258c0,2.512,2.054,4.564,4.566,4.564h18.256
	c2.512,0,4.563-2.053,4.563-4.564V4.564C27.385,2.057,25.333,0,22.821,0z M23.282,13.693h-4.455v11.982h-5.135V13.693h-2.474v-3.92
	h2.474V7.229c0-3.459,1.492-5.516,5.561-5.516h4.684v4.24H20.11c-1.137-0.002-1.277,0.592-1.277,1.697l-0.006,2.123h5.135
	L23.282,13.693z"/>
</svg>
