<?xml version="1.0" encoding="utf-8"?>
<!-- Generator: Adobe Illustrator 16.0.0, SVG Export Plug-In . SVG Version: 6.00 Build 0)  -->
<!DOCTYPE svg PUBLIC "-//W3C//DTD SVG 1.1//EN" "http://www.w3.org/Graphics/SVG/1.1/DTD/svg11.dtd">
<svg version="1.1" id="Layer_1" xmlns="http://www.w3.org/2000/svg" xmlns:xlink="http://www.w3.org/1999/xlink" x="0px" y="0px"
	 width="27.384px" height="27.387px" viewBox="0 0 27.384 27.387" enable-background="new 0 0 27.384 27.387" xml:space="preserve">
<path fill="#FFFFFF" d="M22.821,0H4.564C2.052,0,0,2.057,0,4.564v18.258c0,2.512,2.053,4.564,4.564,4.564h18.257
	c2.51,0,4.563-2.053,4.563-4.564V4.564C27.384,2.057,25.332,0,22.821,0z"/>
<path opacity="0.9" fill="#282828" d="M13.691,4.466c-5.094,0-9.227,4.133-9.227,9.229s4.133,9.227,9.227,9.227
	c5.096,0,9.229-4.131,9.229-9.227S18.787,4.466,13.691,4.466z M19.171,19.173c-0.711,0.713-1.541,1.271-2.463,1.66
	c-0.234,0.1-0.473,0.188-0.715,0.262v-1.381c0-0.729-0.248-1.264-0.748-1.605c0.312-0.027,0.6-0.07,0.861-0.125
	c0.26-0.055,0.537-0.133,0.83-0.234c0.291-0.102,0.55-0.225,0.783-0.365c0.23-0.143,0.452-0.324,0.666-0.551
	c0.213-0.225,0.392-0.48,0.536-0.766c0.144-0.285,0.259-0.627,0.343-1.027c0.084-0.398,0.127-0.84,0.127-1.318
	c0-0.932-0.305-1.725-0.91-2.379c0.274-0.721,0.246-1.504-0.09-2.354l-0.227-0.025c-0.157-0.02-0.438,0.047-0.842,0.197
	c-0.406,0.152-0.861,0.398-1.365,0.738c-0.715-0.197-1.457-0.297-2.225-0.297c-0.775,0-1.514,0.1-2.217,0.297
	c-0.318-0.217-0.621-0.393-0.907-0.535c-0.285-0.141-0.513-0.238-0.686-0.287C9.755,9.024,9.595,8.993,9.449,8.981
	c-0.149-0.014-0.242-0.016-0.285-0.01C9.123,8.978,9.09,8.983,9.076,8.989c-0.338,0.854-0.367,1.637-0.092,2.352
	c-0.605,0.656-0.908,1.447-0.908,2.379c0,0.48,0.041,0.92,0.125,1.32s0.199,0.742,0.344,1.027s0.322,0.541,0.535,0.766
	c0.215,0.227,0.436,0.408,0.666,0.551c0.232,0.141,0.494,0.262,0.785,0.365c0.291,0.102,0.567,0.18,0.83,0.234
	c0.262,0.053,0.547,0.094,0.86,0.125c-0.494,0.336-0.74,0.869-0.74,1.605v1.408c-0.271-0.082-0.539-0.178-0.803-0.289
	c-0.922-0.389-1.75-0.947-2.465-1.662c-0.711-0.711-1.27-1.539-1.66-2.463c-0.404-0.953-0.609-1.967-0.609-3.014
	c0-1.049,0.205-2.064,0.609-3.018c0.391-0.922,0.949-1.75,1.66-2.463c0.712-0.713,1.541-1.271,2.465-1.662
	c0.953-0.404,1.967-0.607,3.014-0.607c1.046,0,2.062,0.203,3.018,0.607c0.922,0.393,1.752,0.949,2.463,1.662
	c0.713,0.713,1.271,1.541,1.662,2.465c0.402,0.951,0.607,1.967,0.607,3.016c0,1.047-0.206,2.061-0.607,3.016
	C20.443,17.632,19.884,18.462,19.171,19.173z"/>
</svg>
