<?xml version="1.0" encoding="utf-8"?>
<!-- Generator: Adobe Illustrator 16.0.0, SVG Export Plug-In . SVG Version: 6.00 Build 0)  -->
<!DOCTYPE svg PUBLIC "-//W3C//DTD SVG 1.1//EN" "http://www.w3.org/Graphics/SVG/1.1/DTD/svg11.dtd">
<svg version="1.1" id="Layer_1" xmlns="http://www.w3.org/2000/svg" xmlns:xlink="http://www.w3.org/1999/xlink" x="0px" y="0px"
	 width="27.384px" height="27.387px" viewBox="0 0 27.384 27.387" enable-background="new 0 0 27.384 27.387" xml:space="preserve">
<path fill="#FFFFFF" d="M22.82,0H4.564C2.053,0,0,2.057,0,4.564v18.258c0,2.512,2.053,4.564,4.564,4.564H22.82
	c2.512,0,4.564-2.053,4.564-4.564V4.564C27.384,2.057,25.332,0,22.82,0z M22.412,9.143c0.008,0.197,0.014,0.393,0.014,0.592
	c0,6.051-4.527,13.026-12.802,13.026c-2.541,0-4.904-0.758-6.896-2.057c0.352,0.043,0.711,0.064,1.073,0.064
	c2.108,0,4.048-0.73,5.587-1.959c-1.969-0.037-3.63-1.361-4.203-3.182c0.275,0.057,0.559,0.084,0.848,0.084
	c0.41,0,0.808-0.057,1.183-0.16c-2.056-0.422-3.606-2.274-3.606-4.491c0-0.02,0-0.039,0-0.057c0.606,0.344,1.303,0.549,2.039,0.572
	c-1.209-0.82-2.002-2.223-2.002-3.811c0-0.838,0.221-1.625,0.609-2.303c2.219,2.771,5.533,4.594,9.273,4.783
	c-0.078-0.334-0.117-0.684-0.117-1.043c0-2.527,2.013-4.578,4.5-4.578c1.295,0,2.463,0.557,3.283,1.447
	c1.025-0.207,1.988-0.588,2.857-1.111C23.712,6.029,23,6.928,22.072,7.494c0.91-0.109,1.777-0.357,2.584-0.721
	C24.054,7.691,23.291,8.498,22.412,9.143z"/>
</svg>
