<?xml version="1.0" encoding="utf-8"?>
<!-- Generator: Adobe Illustrator 16.0.0, SVG Export Plug-In . SVG Version: 6.00 Build 0)  -->
<!DOCTYPE svg PUBLIC "-//W3C//DTD SVG 1.1//EN" "http://www.w3.org/Graphics/SVG/1.1/DTD/svg11.dtd">
<svg version="1.1" id="Layer_1" xmlns="http://www.w3.org/2000/svg" xmlns:xlink="http://www.w3.org/1999/xlink" x="0px" y="0px"
	 width="27.384px" height="27.387px" viewBox="0 0 27.384 27.387" enable-background="new 0 0 27.384 27.387" xml:space="preserve">
<path fill="#FFFFFF" d="M22.82,0H4.566C2.055,0,0,2.057,0,4.564v18.258c0,2.512,2.055,4.564,4.566,4.564H22.82
	c2.512,0,4.564-2.053,4.564-4.564V4.564C27.384,2.057,25.332,0,22.82,0z M21.74,11.719c-0.91,5.113-5.984,9.447-7.509,10.438
	c-1.527,0.988-2.92-0.396-3.424-1.445c-0.578-1.195-2.311-7.672-2.764-8.209c-0.453-0.535-1.814,0.537-1.814,0.537l-0.662-0.867
	c0,0,2.766-3.301,4.869-3.715c2.23-0.438,2.227,3.426,2.762,5.572c0.519,2.072,0.869,3.26,1.322,3.26s1.32-1.156,2.27-2.93
	c0.949-1.775-0.041-3.344-1.898-2.229C15.633,7.674,22.646,6.604,21.74,11.719z"/>
</svg>
