<?xml version="1.0" encoding="utf-8"?>
<!-- Generator: Adobe Illustrator 16.0.0, SVG Export Plug-In . SVG Version: 6.00 Build 0)  -->
<!DOCTYPE svg PUBLIC "-//W3C//DTD SVG 1.1//EN" "http://www.w3.org/Graphics/SVG/1.1/DTD/svg11.dtd">
<svg version="1.1" id="Layer_1" xmlns="http://www.w3.org/2000/svg" xmlns:xlink="http://www.w3.org/1999/xlink" x="0px" y="0px"
	 width="27.384px" height="27.387px" viewBox="0 0 27.384 27.387" enable-background="new 0 0 27.384 27.387" xml:space="preserve">
<g>
	<path fill="#FFFFFF" d="M22.822,0H4.564c-2.51,0-4.565,2.057-4.565,4.564v18.258c0,2.512,2.056,4.564,4.565,4.564h18.258
		c2.509,0,4.562-2.053,4.562-4.564V4.564C27.385,2.057,25.331,0,22.822,0z"/>
	<path opacity="0.9" fill="#282828" d="M19.486,6.74H7.898c-1.912,0-3.477,1.564-3.477,3.477v6.953c0,1.912,1.564,3.477,3.477,3.477
		h11.588c1.914,0,3.479-1.564,3.479-3.477v-6.953C22.965,8.305,21.4,6.74,19.486,6.74z M11.374,18.33V9.057l5.796,4.637
		L11.374,18.33z"/>
</g>
</svg>
