<?xml version="1.0" standalone="no"?>
<!DOCTYPE svg PUBLIC "-//W3C//DTD SVG 1.1//EN" "http://www.w3.org/Graphics/SVG/1.1/DTD/svg11.dtd" >
<svg xmlns="http://www.w3.org/2000/svg">
<metadata></metadata>
<defs>
<font id="novecento_widemedium" horiz-adv-x="1656" >
<font-face units-per-em="2048" ascent="1638" descent="-410" />
<missing-glyph horiz-adv-x="819" />
<glyph horiz-adv-x="2048" />
<glyph horiz-adv-x="2048" />
<glyph unicode="&#xd;" horiz-adv-x="2048" />
<glyph unicode=" "  horiz-adv-x="819" />
<glyph unicode="&#x09;" horiz-adv-x="819" />
<glyph unicode="&#xa0;" horiz-adv-x="819" />
<glyph unicode="!" horiz-adv-x="575" d="M180 0v322h215v-322h-215zM180 459v975h215v-975h-215z" />
<glyph unicode="&#x22;" horiz-adv-x="1005" d="M168 1014v444h215v-444h-215zM598 1014v444h215v-444h-215z" />
<glyph unicode="#" horiz-adv-x="1792" d="M84 401l102 195h279l129 254h-283l103 197h280l199 387h211l-197 -387h287l199 387h211l-197 -387h303l-102 -197h-301l-127 -254h301l-103 -195h-299l-202 -401h-218l205 401h-284l-203 -401h-217l205 401h-281zM680 596h285l129 254h-287z" />
<glyph unicode="$" horiz-adv-x="1261" d="M61 397l222 60q18 -118 115 -199.5t243 -81.5q130 0 209.5 60.5t79.5 152.5q0 28 -7.5 52.5t-24.5 45t-35 37.5t-48.5 33t-54 27.5t-63 25.5t-65 22.5t-69.5 22t-67 21.5q-45 15 -75.5 26.5t-75.5 31.5t-75 40t-63.5 50t-53.5 63t-33.5 78t-13.5 96q0 146 113 255.5 t293 137.5v164h223v-166q156 -29 266 -130t144 -247l-217 -59q-24 117 -111.5 183.5t-206.5 66.5q-122 0 -197 -52t-75 -145q0 -25 9.5 -47t22.5 -39t39.5 -34t47 -27.5t60.5 -25.5t63.5 -23t71.5 -23q33 -11 50 -16q47 -15 71 -23t69.5 -25t71 -30.5t64 -35.5t61.5 -43.5 t49.5 -52t40.5 -63t24 -74t10 -88.5q0 -164 -116.5 -279t-311.5 -143v-161h-223v164q-177 30 -293.5 140.5t-157.5 276.5z" />
<glyph unicode="%" horiz-adv-x="1882" d="M84 1051q0 183 104 297t273 114q167 0 271 -114t104 -297q0 -184 -104 -298t-271 -114q-169 0 -273 114t-104 298zM252 1051q0 -113 58 -181.5t151 -68.5q92 0 149.5 68.5t57.5 181.5t-57.5 181t-149.5 68q-93 0 -151 -68t-58 -181zM412 0l891 1434h155l-891 -1434h-155z M1047 383q0 183 104 297.5t272 114.5q167 0 271 -114.5t104 -297.5q0 -184 -104 -298t-271 -114q-169 0 -272.5 113.5t-103.5 298.5zM1214 383q0 -113 58 -181.5t151 -68.5q92 0 149.5 68.5t57.5 181.5t-57.5 181.5t-149.5 68.5q-93 0 -151 -68.5t-58 -181.5z" />
<glyph unicode="&#x26;" horiz-adv-x="1443" d="M84 414q0 132 87.5 222.5t211.5 104.5q-47 7 -92.5 29.5t-86.5 59.5t-66 96t-25 129q0 80 30 151.5t89 129.5t155.5 92t218.5 34q211 0 350.5 -107t180.5 -300l-193 -54q-36 137 -114 202t-220 65q-73 0 -127 -22t-81.5 -57t-40.5 -70.5t-13 -71.5q0 -95 72.5 -156.5 t208.5 -61.5h798v-182h-251v-151q0 -116 -32.5 -209.5t-99 -165t-176 -111t-254.5 -39.5q-236 0 -383 123.5t-147 319.5zM307 418q0 -108 87 -179t220 -71q180 0 262 84t82 254v141h-344q-143 0 -225 -59t-82 -170z" />
<glyph unicode="'" horiz-adv-x="575" d="M180 1014v444h215v-444h-215z" />
<glyph unicode="(" horiz-adv-x="763" d="M86 709q0 196 35 357t89 266.5t131.5 185.5t150 123t155.5 71l60 -211q-205 -67 -299.5 -259t-94.5 -533q0 -340 94.5 -532t299.5 -259l-60 -211q-83 28 -155.5 71t-150 123.5t-131.5 185.5t-89 265.5t-35 356.5z" />
<glyph unicode=")" horiz-adv-x="763" d="M57 -82l60 -211q83 28 155.5 71t150 123.5t131.5 185.5t89 265.5t35 356.5t-35 357t-89 266.5t-131.5 185.5t-150 123t-155.5 71l-60 -211q205 -67 299.5 -259t94.5 -533q0 -340 -94.5 -532t-299.5 -259z" />
<glyph unicode="*" horiz-adv-x="1058" d="M180 1122l45 142l230 -76v246h145v-246l234 76l45 -142l-236 -69l150 -199l-119 -88l-146 207l-141 -207l-121 86l150 201z" />
<glyph unicode="+" horiz-adv-x="1349" d="M180 633v188h406v398h202v-398h381v-188h-381v-391h-202v391h-406z" />
<glyph unicode="," horiz-adv-x="520" d="M111 -268q49 41 89 114.5t40 128.5l22 9l-22 4q-39 2 -70 32.5t-31 79.5q0 52 36 86.5t89 34.5q51 0 86 -39.5t35 -101.5q0 -90 -53 -184t-131 -164h-90z" />
<glyph unicode="-" horiz-adv-x="804" d="M82 623v208h641v-208h-641z" />
<glyph unicode="." horiz-adv-x="487" d="M123 94q0 51 35.5 86t85.5 35q51 0 86 -35.5t35 -85.5q0 -51 -35 -86t-86 -35t-86 35t-35 86z" />
<glyph unicode="/" horiz-adv-x="976" d="M16 0l734 1434h211l-728 -1434h-217z" />
<glyph unicode="0" horiz-adv-x="1533" d="M84 717q0 161 49.5 298.5t137.5 236t216 154.5t279 56q203 0 359.5 -96t241.5 -265t85 -384t-85 -384.5t-241.5 -265.5t-359.5 -96q-151 0 -279 56t-216 154.5t-137.5 236.5t-49.5 299zM319 717q0 -238 118.5 -380t328.5 -142t330.5 142.5t120.5 379.5t-120.5 379.5 t-330.5 142.5t-328.5 -142t-118.5 -380z" />
<glyph unicode="1" horiz-adv-x="888" d="M84 975l469 459h156v-1434h-228v1038l4 62l-30 -37l-226 -221z" />
<glyph unicode="2" horiz-adv-x="1269" d="M111 1065q53 188 191.5 292.5t340.5 104.5q220 0 361 -129t141 -325q0 -70 -19.5 -134t-47.5 -112t-75.5 -98t-87 -83t-98.5 -77l-391 -291h719v-213h-1020v213l633 514q67 54 109 129.5t42 149.5q0 110 -76 182t-196 72q-126 0 -205 -70t-110 -178z" />
<glyph unicode="3" horiz-adv-x="1232" d="M84 377l205 57q22 -119 111 -188.5t229 -69.5q137 0 211.5 70t74.5 178q0 58 -26.5 102.5t-71 70.5t-98 39t-113.5 13h-114v180h114q145 0 216 67t71 161q0 36 -15.5 70t-46 64.5t-84.5 49.5t-124 19q-240 0 -312 -244l-200 55q43 181 182 286t340 105q122 0 218.5 -33 t155.5 -89t90 -127t31 -150q0 -129 -93.5 -224.5t-203.5 -95.5q133 0 226.5 -92.5t93.5 -232.5q0 -198 -145.5 -322.5t-372.5 -124.5q-204 0 -359 113.5t-190 292.5z" />
<glyph unicode="4" horiz-adv-x="1345" d="M84 326v198l786 910h193v-910h160v-198h-160v-326h-217v326h-762zM334 524h512v557l4 39l-29 -39z" />
<glyph unicode="5" horiz-adv-x="1286" d="M111 369l208 55q23 -115 104 -185.5t216 -70.5q128 0 211.5 84.5t83.5 212.5t-84 210.5t-211 82.5q-212 0 -277 -152l-194 56l125 772h784v-213h-612l-59 -359q76 76 241 76q221 0 368.5 -134.5t147.5 -340.5q0 -212 -146.5 -352t-369.5 -140q-213 0 -357 113t-179 285z " />
<glyph unicode="6" horiz-adv-x="1253" d="M84 471q0 141 53 260.5t166 269.5l328 433h248l-426 -568q32 39 81 64.5t105 25.5q120 3 220.5 -35t168 -105.5t104.5 -158.5t37 -194q0 -218 -151.5 -355t-386.5 -137q-152 0 -276.5 61t-197.5 176t-73 263zM319 469q0 -135 85 -217t223 -82q137 0 221.5 82t85.5 217 q1 132 -83 212.5t-224 80.5q-138 0 -223 -80.5t-85 -212.5z" />
<glyph unicode="7" horiz-adv-x="1150" d="M88 1221v213h1047v-136l-729 -1298h-244l649 1159l47 66l-65 -4h-705z" />
<glyph unicode="8" horiz-adv-x="1247" d="M84 399q0 144 92.5 244.5t218.5 120.5q-33 5 -73 27.5t-80.5 60.5t-67.5 99t-27 130q0 162 134.5 271.5t341.5 109.5q208 0 341.5 -109.5t133.5 -271.5q0 -70 -27 -130.5t-67 -98.5t-80.5 -60.5t-73.5 -27.5q126 -20 219.5 -120.5t93.5 -244.5q0 -186 -151.5 -307.5 t-388.5 -122.5q-237 1 -388 122t-151 308zM313 416q0 -115 85.5 -183.5t224.5 -70.5q139 2 225 71t86 183q0 110 -86.5 178t-224.5 68t-224 -68t-86 -178zM356 1067q0 -91 71 -152t196 -61q126 1 197 61.5t71 151.5q0 97 -73.5 158t-194.5 61q-120 0 -193.5 -61.5 t-73.5 -157.5z" />
<glyph unicode="9" horiz-adv-x="1261" d="M84 969q0 222 153 357.5t390 135.5q114 0 214 -33.5t175 -95.5t118.5 -158t43.5 -214q0 -131 -61.5 -270.5t-205.5 -309.5l-327 -381h-258l483 567q-34 -40 -89.5 -66t-107.5 -26q-125 -2 -227 36.5t-167 107t-99.5 158.5t-34.5 192zM319 963q0 -140 89.5 -216.5 t222.5 -76.5q136 0 223.5 78.5t87.5 214.5q0 146 -87.5 223.5t-223.5 77.5q-134 0 -223 -78.5t-89 -222.5z" />
<glyph unicode=":" horiz-adv-x="487" d="M123 94q0 51 35.5 86t85.5 35q51 0 86 -35.5t35 -85.5q0 -51 -35 -86t-86 -35t-86 35t-35 86zM123 715q0 51 35.5 86t85.5 35q51 0 86 -35.5t35 -85.5q0 -51 -35 -86t-86 -35t-86 35t-35 86z" />
<glyph unicode=";" horiz-adv-x="522" d="M111 -272q49 41 89 114.5t40 128.5l22 9l-22 4q-39 2 -70 32.5t-31 79.5q0 52 36 86.5t89 34.5q51 0 86 -39.5t35 -101.5q0 -90 -53 -184t-131 -164h-90zM139 715q0 51 35.5 86t85.5 35q51 0 86 -35.5t35 -85.5q0 -51 -35 -86t-86 -35t-86 35t-35 86z" />
<glyph unicode="&#x3c;" horiz-adv-x="1302" d="M180 745l668 -501h274l-649 501l649 500h-274z" />
<glyph unicode="=" horiz-adv-x="1349" d="M180 412v188h989v-188h-989zM180 831v189h989v-189h-989z" />
<glyph unicode="&#x3e;" horiz-adv-x="1302" d="M180 244l649 501l-649 500h275l667 -500l-667 -501h-275z" />
<glyph unicode="?" horiz-adv-x="1185" d="M84 1071q43 183 182.5 287t341.5 104q123 0 219.5 -33t155 -90t89 -129.5t30.5 -154.5q0 -52 -13.5 -99t-33.5 -83.5t-55.5 -72t-66.5 -59.5t-80.5 -52.5t-84 -46t-88.5 -42.5v-141h-219v225q235 118 320 189.5t85 166.5q0 39 -13 75t-41.5 70.5t-83 55.5t-128.5 21 q-134 0 -212 -60.5t-114 -183.5zM461 0v322h219v-322h-219z" />
<glyph unicode="@" horiz-adv-x="1634" d="M84 715q0 159 55 297.5t151 237.5t232 155.5t293 56.5t293.5 -56.5t233.5 -155t152.5 -237.5t55.5 -298q0 -64 -11.5 -123.5t-36 -113.5t-60 -94.5t-88 -64.5t-115.5 -24q-76 0 -135 38.5t-84 100.5q-35 -63 -103.5 -98t-156.5 -35q-161 0 -263 111t-102 288 q0 186 105 302t272 116q44 0 83.5 -10.5t65.5 -25.5t45.5 -31.5t28.5 -29t9 -17.5v77h149v-530q0 -65 27 -104t77 -39q52 0 87.5 44.5t50 111.5t14.5 151q0 177 -76.5 318.5t-212 221.5t-305.5 80q-169 0 -304.5 -80t-211.5 -221.5t-76 -318.5q0 -174 76 -317t212 -225.5 t304 -82.5q83 0 152 12.5t109 30t67 34.5t41 29.5t16 12.5l92 -49q-3 -7 -18.5 -25t-54.5 -47.5t-90.5 -54.5t-135 -43.5t-178.5 -18.5q-208 0 -376 97.5t-261.5 267.5t-93.5 379zM567 702q2 -108 62.5 -175.5t156.5 -67.5q99 0 158.5 71t59.5 175v55q0 90 -61 147.5 t-157 57.5q-98 0 -159 -73t-60 -190z" />
<glyph unicode="A" horiz-adv-x="1593" d="M16 0l705 1434h151l705 -1434h-252l-145 299h-766l-146 -299h-252zM518 512h557l-262 541l-16 45l-17 -45z" />
<glyph unicode="B" horiz-adv-x="1335" d="M180 0v1434h568q186 0 302.5 -102.5t116.5 -260.5q0 -102 -63.5 -185t-145.5 -106q113 -18 205 -118.5t92 -233.5q0 -192 -127.5 -310t-359.5 -118h-588zM408 190h342q119 0 194.5 65.5t75.5 172.5q0 105 -80.5 172.5t-196.5 67.5h-335v-478zM408 856h294q106 0 172 54.5 t66 140.5q0 87 -66 139.5t-172 52.5h-294v-387z" />
<glyph unicode="C" horiz-adv-x="1554" d="M84 717q0 159 58.5 298t158 237t236.5 154t290 56q208 0 381 -102t271 -275l-232 -61q-66 100 -178.5 157.5t-241.5 57.5q-223 0 -365.5 -145.5t-142.5 -376.5q0 -115 39 -213t106.5 -165t161 -104.5t201.5 -37.5q144 0 264.5 69t182.5 185l227 -62q-92 -192 -272 -305 t-402 -113q-204 0 -374 95.5t-269.5 267t-99.5 383.5z" />
<glyph unicode="D" horiz-adv-x="1617" d="M180 0v1434h613q153 0 289 -53t235.5 -146.5t158 -229.5t58.5 -294q0 -156 -58 -290t-157 -225.5t-233.5 -143.5t-284.5 -52h-621zM408 213h393q101 0 191 34.5t158 97.5t108 157.5t40 208.5q0 115 -40 211.5t-109 161.5t-161 101t-195 36h-385v-1008z" />
<glyph unicode="E" horiz-adv-x="1312" d="M180 0v1434h985v-213h-757v-373h604v-207h-604v-428h770v-213h-998z" />
<glyph unicode="F" horiz-adv-x="1228" d="M180 0v1434h965v-213h-737v-416h583v-205h-583v-600h-228z" />
<glyph unicode="G" horiz-adv-x="1626" d="M84 717q0 159 58.5 298t158 237t236.5 154t290 56q214 -3 384.5 -104t267.5 -273l-232 -61q-64 99 -177.5 157t-242.5 58q-223 0 -365.5 -145.5t-142.5 -376.5q0 -233 147.5 -378.5t371.5 -145.5q94 0 176.5 24.5t139.5 65t96 85t59 91.5v119h-418v186h612v-766h-196v184 q-30 -36 -72.5 -70.5t-102 -67.5t-139 -53t-166.5 -20q-204 0 -374 95.5t-269.5 267t-99.5 383.5z" />
<glyph unicode="H" horiz-adv-x="1515" d="M180 0v1434h228v-594h700v594h227v-1434h-227v629h-700v-629h-228z" />
<glyph unicode="I" horiz-adv-x="587" d="M180 0v1434h228v-1434h-228z" />
<glyph unicode="J" horiz-adv-x="1357" d="M20 358l224 60q37 -110 131.5 -173t220.5 -63q187 0 288 110t101 306v836h227v-826q0 -301 -164.5 -469t-451.5 -168q-206 0 -363.5 108.5t-212.5 278.5z" />
<glyph unicode="K" horiz-adv-x="1441" d="M180 0v1434h228v-670l673 670h267l-588 -590l645 -844h-283l-520 686l-194 -194v-492h-228z" />
<glyph unicode="L" horiz-adv-x="1185" d="M180 0v1434h228v-1221h737v-213h-965z" />
<glyph unicode="M" horiz-adv-x="1724" d="M180 0v1434h213l449 -719l20 -41l21 41l448 719h213v-1434h-227v969l4 59l-27 -59l-385 -615h-94l-385 615l-27 57l5 -57v-969h-228z" />
<glyph unicode="N" horiz-adv-x="1599" d="M193 0v1434h213l751 -977l27 -51l-4 59v969h227v-1434h-213l-750 985l-28 47l4 -55v-977h-227z" />
<glyph unicode="O" d="M84 717q0 159 58.5 298t158 237t236.5 154t290 56q204 0 374.5 -95t271 -266.5t100.5 -383.5q0 -159 -59 -298.5t-159.5 -237t-237.5 -154t-290 -56.5q-204 0 -374 95.5t-269.5 267t-99.5 383.5zM319 717q0 -231 143 -376.5t365 -145.5q221 0 365.5 146t144.5 376 q0 232 -144 377t-366 145q-223 0 -365.5 -144.5t-142.5 -377.5z" />
<glyph unicode="P" horiz-adv-x="1261" d="M180 0v1434h477q254 0 398.5 -124.5t144.5 -344.5t-144.5 -344.5t-398.5 -124.5h-249v-496h-228zM408 709h245q150 0 231 67.5t81 188.5q0 123 -83 189.5t-229 66.5h-245v-512z" />
<glyph unicode="Q" d="M84 717q0 159 58.5 298t158 237t236.5 154t290 56q204 0 374.5 -95t271 -266.5t100.5 -383.5q0 -192 -84.5 -353.5t-230 -262t-324.5 -124.5v-247h-227v250q-132 20 -246.5 84t-198 159t-131 223t-47.5 271zM319 717q0 -231 143 -376.5t365 -145.5q221 0 365.5 146 t144.5 376q0 232 -144 377t-366 145q-223 0 -365.5 -144.5t-142.5 -377.5z" />
<glyph unicode="R" horiz-adv-x="1339" d="M180 0v1434h469q257 0 404 -124t147 -337q0 -150 -74.5 -257.5t-212.5 -160.5l347 -555h-254l-318 512h-39h-241v-512h-228zM408 725h268q141 0 215 68.5t74 179.5q0 113 -75.5 180.5t-213.5 67.5h-268v-496z" />
<glyph unicode="S" horiz-adv-x="1232" d="M61 397l222 60q18 -118 115 -199.5t243 -81.5q130 0 209.5 60.5t79.5 152.5q0 28 -7.5 52.5t-24.5 45t-35 37.5t-48.5 33t-54 27.5t-63 25.5t-65 22.5t-69.5 22t-67 21.5q-45 15 -75.5 26.5t-75.5 31.5t-75 40t-63.5 50t-53.5 63t-33.5 78t-13.5 96q0 169 145.5 285 t366.5 116q197 0 342 -107t185 -280l-217 -59q-24 117 -111.5 183.5t-206.5 66.5q-122 0 -197 -52t-75 -145q0 -25 9.5 -47t22.5 -39t39.5 -34t47 -27.5t60.5 -25.5t63.5 -23t71.5 -23q33 -11 50 -16q47 -15 71 -23t69.5 -25t71 -30.5t64 -35.5t61.5 -43.5t49.5 -52 t40.5 -63t24 -74t10 -88.5q0 -187 -148 -307.5t-386 -120.5q-223 0 -372 116.5t-196 309.5z" />
<glyph unicode="T" horiz-adv-x="1226" d="M37 1221v213h1153v-213h-465v-1221h-227v1221h-461z" />
<glyph unicode="U" horiz-adv-x="1523" d="M147 608v826h228v-834q0 -196 101 -307t286 -111q187 0 287 111t100 307v834h227v-826q0 -300 -164 -468.5t-450 -168.5q-287 0 -451 168t-164 469z" />
<glyph unicode="V" horiz-adv-x="1550" d="M16 1434h256l486 -1057l18 -49l17 49l487 1057h254l-668 -1434h-182z" />
<glyph unicode="W" horiz-adv-x="2052" d="M16 1434h242l393 -981l15 -56l14 56l285 766h122l285 -766l14 -56l15 56l393 981h242l-574 -1434h-155l-265 727l-16 61l-18 -61l-265 -727h-155z" />
<glyph unicode="X" horiz-adv-x="1382" d="M29 0l526 739l-489 695h272l340 -482l12 -32l15 32l339 482h273l-490 -695l525 -739h-273l-374 520l-15 35l-12 -35l-375 -520h-274z" />
<glyph unicode="Y" horiz-adv-x="1409" d="M18 1434h275l387 -508l25 -45l26 45l385 508h277l-574 -764v-670h-227v670z" />
<glyph unicode="Z" horiz-adv-x="1427" d="M123 0v211l850 979l41 35l-64 -4h-807v213h1162v-211l-842 -977l-41 -37l63 4h820v-213h-1182z" />
<glyph unicode="[" horiz-adv-x="729" d="M180 -311v2064h502v-211h-274v-1642h274v-211h-502z" />
<glyph unicode="\" horiz-adv-x="976" d="M16 1434l727 -1434h218l-734 1434h-211z" />
<glyph unicode="]" horiz-adv-x="741" d="M59 -100v-211h502v2064h-502v-211h275v-1642h-275z" />
<glyph unicode="^" horiz-adv-x="1318" d="M180 977l479 481l480 -481l-109 -96l-371 381l-372 -381z" />
<glyph unicode="_" horiz-adv-x="1572" d="M180 0h1215v-182h-1215v182z" />
<glyph unicode="`" horiz-adv-x="638" d="M33 1716l80 156l454 -244l-67 -125z" />
<glyph unicode="a" horiz-adv-x="1593" d="M16 0l705 1434h151l705 -1434h-252l-145 299h-766l-146 -299h-252zM518 512h557l-262 541l-16 45l-17 -45z" />
<glyph unicode="b" horiz-adv-x="1335" d="M180 0v1434h568q186 0 302.5 -102.5t116.5 -260.5q0 -102 -63.5 -185t-145.5 -106q113 -18 205 -118.5t92 -233.5q0 -192 -127.5 -310t-359.5 -118h-588zM408 190h342q119 0 194.5 65.5t75.5 172.5q0 105 -80.5 172.5t-196.5 67.5h-335v-478zM408 856h294q106 0 172 54.5 t66 140.5q0 87 -66 139.5t-172 52.5h-294v-387z" />
<glyph unicode="c" horiz-adv-x="1554" d="M84 717q0 159 58.5 298t158 237t236.5 154t290 56q208 0 381 -102t271 -275l-232 -61q-66 100 -178.5 157.5t-241.5 57.5q-223 0 -365.5 -145.5t-142.5 -376.5q0 -115 39 -213t106.5 -165t161 -104.5t201.5 -37.5q144 0 264.5 69t182.5 185l227 -62q-92 -192 -272 -305 t-402 -113q-204 0 -374 95.5t-269.5 267t-99.5 383.5z" />
<glyph unicode="d" horiz-adv-x="1617" d="M180 0v1434h613q153 0 289 -53t235.5 -146.5t158 -229.5t58.5 -294q0 -156 -58 -290t-157 -225.5t-233.5 -143.5t-284.5 -52h-621zM408 213h393q101 0 191 34.5t158 97.5t108 157.5t40 208.5q0 115 -40 211.5t-109 161.5t-161 101t-195 36h-385v-1008z" />
<glyph unicode="e" horiz-adv-x="1312" d="M180 0v1434h985v-213h-757v-373h604v-207h-604v-428h770v-213h-998z" />
<glyph unicode="f" horiz-adv-x="1228" d="M180 0v1434h965v-213h-737v-416h583v-205h-583v-600h-228z" />
<glyph unicode="g" horiz-adv-x="1626" d="M84 717q0 159 58.5 298t158 237t236.5 154t290 56q214 -3 384.5 -104t267.5 -273l-232 -61q-64 99 -177.5 157t-242.5 58q-223 0 -365.5 -145.5t-142.5 -376.5q0 -233 147.5 -378.5t371.5 -145.5q94 0 176.5 24.5t139.5 65t96 85t59 91.5v119h-418v186h612v-766h-196v184 q-30 -36 -72.5 -70.5t-102 -67.5t-139 -53t-166.5 -20q-204 0 -374 95.5t-269.5 267t-99.5 383.5z" />
<glyph unicode="h" horiz-adv-x="1515" d="M180 0v1434h228v-594h700v594h227v-1434h-227v629h-700v-629h-228z" />
<glyph unicode="i" horiz-adv-x="587" d="M180 0v1434h228v-1434h-228z" />
<glyph unicode="j" horiz-adv-x="1357" d="M20 358l224 60q37 -110 131.5 -173t220.5 -63q187 0 288 110t101 306v836h227v-826q0 -301 -164.5 -469t-451.5 -168q-206 0 -363.5 108.5t-212.5 278.5z" />
<glyph unicode="k" horiz-adv-x="1441" d="M180 0v1434h228v-670l673 670h267l-588 -590l645 -844h-283l-520 686l-194 -194v-492h-228z" />
<glyph unicode="l" horiz-adv-x="1185" d="M180 0v1434h228v-1221h737v-213h-965z" />
<glyph unicode="m" horiz-adv-x="1724" d="M180 0v1434h213l449 -719l20 -41l21 41l448 719h213v-1434h-227v969l4 59l-27 -59l-385 -615h-94l-385 615l-27 57l5 -57v-969h-228z" />
<glyph unicode="n" horiz-adv-x="1574" d="M193 0v1434h213l751 -977l27 -51l-4 59v969h227v-1434h-213l-750 985l-28 47l4 -55v-977h-227z" />
<glyph unicode="o" d="M84 717q0 159 58.5 298t158 237t236.5 154t290 56q204 0 374.5 -95t271 -266.5t100.5 -383.5q0 -159 -59 -298.5t-159.5 -237t-237.5 -154t-290 -56.5q-204 0 -374 95.5t-269.5 267t-99.5 383.5zM319 717q0 -231 143 -376.5t365 -145.5q221 0 365.5 146t144.5 376 q0 232 -144 377t-366 145q-223 0 -365.5 -144.5t-142.5 -377.5z" />
<glyph unicode="p" horiz-adv-x="1261" d="M180 0v1434h477q254 0 398.5 -124.5t144.5 -344.5t-144.5 -344.5t-398.5 -124.5h-249v-496h-228zM408 709h245q150 0 231 67.5t81 188.5q0 123 -83 189.5t-229 66.5h-245v-512z" />
<glyph unicode="q" d="M84 717q0 159 58.5 298t158 237t236.5 154t290 56q204 0 374.5 -95t271 -266.5t100.5 -383.5q0 -192 -84.5 -353.5t-230 -262t-324.5 -124.5v-247h-227v250q-132 20 -246.5 84t-198 159t-131 223t-47.5 271zM319 717q0 -231 143 -376.5t365 -145.5q221 0 365.5 146 t144.5 376q0 232 -144 377t-366 145q-223 0 -365.5 -144.5t-142.5 -377.5z" />
<glyph unicode="r" horiz-adv-x="1339" d="M180 0v1434h469q257 0 404 -124t147 -337q0 -150 -74.5 -257.5t-212.5 -160.5l347 -555h-254l-318 512h-39h-241v-512h-228zM408 725h268q141 0 215 68.5t74 179.5q0 113 -75.5 180.5t-213.5 67.5h-268v-496z" />
<glyph unicode="s" horiz-adv-x="1232" d="M61 397l222 60q18 -118 115 -199.5t243 -81.5q130 0 209.5 60.5t79.5 152.5q0 28 -7.5 52.5t-24.5 45t-35 37.5t-48.5 33t-54 27.5t-63 25.5t-65 22.5t-69.5 22t-67 21.5q-45 15 -75.5 26.5t-75.5 31.5t-75 40t-63.5 50t-53.5 63t-33.5 78t-13.5 96q0 169 145.5 285 t366.5 116q197 0 342 -107t185 -280l-217 -59q-24 117 -111.5 183.5t-206.5 66.5q-122 0 -197 -52t-75 -145q0 -25 9.5 -47t22.5 -39t39.5 -34t47 -27.5t60.5 -25.5t63.5 -23t71.5 -23q33 -11 50 -16q47 -15 71 -23t69.5 -25t71 -30.5t64 -35.5t61.5 -43.5t49.5 -52 t40.5 -63t24 -74t10 -88.5q0 -187 -148 -307.5t-386 -120.5q-223 0 -372 116.5t-196 309.5z" />
<glyph unicode="t" horiz-adv-x="1226" d="M37 1221v213h1153v-213h-465v-1221h-227v1221h-461z" />
<glyph unicode="u" horiz-adv-x="1523" d="M147 608v826h228v-834q0 -196 101 -307t286 -111q187 0 287 111t100 307v834h227v-826q0 -300 -164 -468.5t-450 -168.5q-287 0 -451 168t-164 469z" />
<glyph unicode="v" horiz-adv-x="1550" d="M16 1434h256l486 -1057l18 -49l17 49l487 1057h254l-668 -1434h-182z" />
<glyph unicode="w" horiz-adv-x="2052" d="M16 1434h242l393 -981l15 -56l14 56l285 766h122l285 -766l14 -56l15 56l393 981h242l-574 -1434h-155l-265 727l-16 61l-18 -61l-265 -727h-155z" />
<glyph unicode="x" horiz-adv-x="1382" d="M29 0l526 739l-489 695h272l340 -482l12 -32l15 32l339 482h273l-490 -695l525 -739h-273l-374 520l-15 35l-12 -35l-375 -520h-274z" />
<glyph unicode="y" horiz-adv-x="1409" d="M18 1434h275l387 -508l25 -45l26 45l385 508h277l-574 -764v-670h-227v670z" />
<glyph unicode="z" horiz-adv-x="1427" d="M123 0v211l850 979l41 35l-64 -4h-807v213h1162v-211l-842 -977l-41 -37l63 4h820v-213h-1182z" />
<glyph unicode="{" horiz-adv-x="841" d="M180 721q5 2 14 6t31.5 25.5t40 53t31.5 92.5t14 138v234q0 245 131 376.5t371 131.5v-211q-45 0 -81.5 -7t-73.5 -27.5t-62 -54.5t-41 -92.5t-16 -136.5v-200q0 -78 -10.5 -140.5t-25.5 -96t-32 -55.5t-27.5 -29t-15.5 -7q5 0 15.5 -7t27.5 -29t32 -55.5t25.5 -96 t10.5 -140.5v-200q0 -78 16 -136.5t41 -92.5t62 -54.5t73.5 -27.5t81.5 -7v-211q-240 0 -371 131.5t-131 376.5v234q0 77 -13.5 138t-32.5 92.5t-38.5 52.5t-32.5 27z" />
<glyph unicode="|" horiz-adv-x="540" d="M180 -152v1739h180v-1739h-180z" />
<glyph unicode="}" horiz-adv-x="856" d="M43 -125v-211q240 0 371 131.5t131 376.5v234q0 77 13.5 138t32.5 92.5t38.5 52.5t32.5 27l14 5q-5 2 -14 6t-31.5 25.5t-40 53t-31.5 92.5t-14 138v234q0 245 -131 376.5t-371 131.5v-211q45 0 81.5 -7t73.5 -27.5t62 -54.5t41 -92.5t16 -136.5v-200q0 -78 10.5 -140.5 t25.5 -96t32 -55.5t27.5 -29t15.5 -7q-5 0 -15.5 -7t-27.5 -29t-32 -55.5t-25.5 -96t-10.5 -140.5v-200q0 -78 -16 -136.5t-41 -92.5t-62 -54.5t-73.5 -27.5t-81.5 -7z" />
<glyph unicode="~" horiz-adv-x="1052" d="M84 700q20 95 99.5 155t187.5 60q55 0 103.5 -21t77 -45.5t62 -45.5t62.5 -21q46 0 76.5 27.5t31.5 71.5l185 -50q-21 -95 -99.5 -156t-187.5 -61q-51 0 -97.5 21t-75.5 46t-64 46t-66 21q-49 0 -78.5 -26.5t-32.5 -70.5z" />
<glyph unicode="&#xa1;" horiz-adv-x="575" d="M180 0v975h215v-975h-215zM180 1112v322h215v-322h-215z" />
<glyph unicode="&#xa2;" horiz-adv-x="1173" d="M84 713q0 204 126.5 352.5t317.5 181.5v213h183v-211q131 -22 235.5 -98t159.5 -190l-199 -54q-93 152 -284 152q-149 0 -238.5 -93.5t-89.5 -252.5q0 -158 90 -252t238 -94q102 0 181 47.5t120 134.5l196 -53q-52 -126 -161.5 -211.5t-247.5 -108.5v-203h-183v205 q-191 33 -317.5 182t-126.5 353z" />
<glyph unicode="&#xa3;" horiz-adv-x="1435" d="M180 0v178q55 11 91 42t53 78t21.5 108.5t-3.5 132.5l-8 84h-154v182h137l-18 199q-11 123 46.5 228t163 166t232.5 64q57 1 115 -10t120 -39.5t113.5 -71.5t94.5 -113t65 -157l-194 -53q-77 251 -303 242q-112 -4 -174.5 -82.5t-51.5 -192.5l17 -180h440v-182h-424 l8 -80q24 -284 -106 -365h790v-178h-1071z" />
<glyph unicode="&#xa4;" horiz-adv-x="1349" d="M90 231l143 144q-104 142 -104 321t111 326l-144 143l115 115l145 -145q137 106 318 106q176 0 321 -104l144 143l114 -115l-143 -143q111 -143 111 -326q0 -179 -105 -319l144 -146l-115 -114l-146 145q-141 -112 -325 -112q-181 0 -326 110l-143 -143zM334 698 q0 -148 99 -247t241 -99q146 0 245 99t99 247q0 147 -99.5 246.5t-244.5 99.5q-142 0 -241 -99.5t-99 -246.5z" />
<glyph unicode="&#xa5;" horiz-adv-x="1409" d="M18 1434h275l387 -508l25 -45l26 45l385 508h277l-398 -531h238v-153h-354l-56 -74h410v-154h-414v-522h-227v522h-404v154h400l-56 74h-344v153h228z" />
<glyph unicode="&#xa6;" horiz-adv-x="540" d="M180 -152v594h180v-594h-180zM180 1014v573h180v-573h-180z" />
<glyph unicode="&#xa8;" horiz-adv-x="845" d="M14 1686q0 47 34 80.5t83 33.5t83 -33.5t34 -80.5q0 -50 -34 -83.5t-83 -33.5t-83 33.5t-34 83.5zM522 1686q0 47 34 80.5t83 33.5t83 -33.5t34 -80.5q0 -50 -34 -83.5t-83 -33.5t-83 33.5t-34 83.5z" />
<glyph unicode="&#xa9;" d="M84 717q0 159 58.5 298t158 237t236.5 154t290 56q204 0 374.5 -95t271 -266.5t100.5 -383.5q0 -159 -59 -298.5t-159.5 -237t-237.5 -154t-290 -56.5q-204 0 -374 95.5t-269.5 267t-99.5 383.5zM258 717q0 -255 161.5 -418.5t407.5 -163.5q120 0 225.5 43t181.5 119 t119.5 185t43.5 235q0 170 -74.5 303.5t-204.5 206.5t-291 73q-247 0 -408 -163t-161 -420zM479 717q0 153 102.5 254.5t252.5 101.5q100 0 187 -54t128 -140l-129 -35q-28 45 -78 72.5t-108 27.5q-97 0 -157.5 -63t-60.5 -164t60.5 -164.5t157.5 -63.5q64 0 117 32.5 t79 86.5l129 -37q-38 -93 -129 -152t-196 -59q-150 0 -252.5 102t-102.5 255z" />
<glyph unicode="&#xaa;" horiz-adv-x="821" d="M41 557v115h739v-115h-739zM41 768l334 682h71l334 -682h-141l-61 127h-334l-62 -127h-141zM299 1010h223l-100 211l-12 36l-11 -36z" />
<glyph unicode="&#xab;" horiz-adv-x="1564" d="M205 729l481 -479l125 127l-367 352l367 354l-123 125zM803 729l481 -479l125 127l-367 352l367 354l-123 125z" />
<glyph unicode="&#xad;" horiz-adv-x="804" d="M82 623v208h641v-208h-641z" />
<glyph unicode="&#xae;" d="M84 717q0 159 58.5 298t158 237t236.5 154t290 56q204 0 374.5 -95t271 -266.5t100.5 -383.5q0 -159 -59 -298.5t-159.5 -237t-237.5 -154t-290 -56.5q-204 0 -374 95.5t-269.5 267t-99.5 383.5zM258 717q0 -255 161.5 -418.5t407.5 -163.5q120 0 225.5 43t181.5 119 t119.5 185t43.5 235q0 170 -74.5 303.5t-204.5 206.5t-291 73q-247 0 -408 -163t-161 -420zM596 362v711h235q127 0 199 -61t72 -166q0 -152 -141 -207l167 -277h-135l-157 256h-5h-108v-256h-127zM723 737h123q63 0 97 28.5t34 80.5t-34.5 80t-96.5 28h-123v-217z" />
<glyph unicode="&#xaf;" horiz-adv-x="731" d="M14 1386v140h629v-140h-629z" />
<glyph unicode="&#xb0;" horiz-adv-x="630" d="M84 1430q0 96 67.5 163.5t163.5 67.5q95 0 163.5 -68t68.5 -163t-68.5 -162.5t-163.5 -67.5q-97 0 -164 67t-67 163zM205 1432q0 -44 33 -77.5t77 -33.5q46 0 79.5 33.5t33.5 77.5q0 47 -33.5 78.5t-79.5 31.5q-45 0 -77.5 -31.5t-32.5 -78.5z" />
<glyph unicode="&#xb1;" horiz-adv-x="1349" d="M180 -20v188h989v-188h-989zM180 633v188h406v398h202v-398h381v-188h-381v-291h-202v291h-406z" />
<glyph unicode="&#xb4;" horiz-adv-x="638" d="M-18 1628l456 244l80 -156l-469 -213z" />
<glyph unicode="&#xb7;" horiz-adv-x="487" d="M123 715q0 51 35.5 86t85.5 35q51 0 86 -35.5t35 -85.5q0 -51 -35 -86t-86 -35t-86 35t-35 86z" />
<glyph unicode="&#xb8;" horiz-adv-x="512" d="M14 -508l49 125h134q46 0 71 21t25 55q0 36 -26.5 58t-69.5 22h-160l80 227h131l-39 -106q92 2 153.5 -52.5t61.5 -146.5q0 -99 -63.5 -151t-163.5 -52h-183z" />
<glyph unicode="&#xba;" horiz-adv-x="743" d="M20 1106q0 152 101.5 252t249.5 100t250 -100t102 -252q0 -151 -102 -250.5t-250 -99.5t-249.5 99.5t-101.5 250.5zM41 557v115h661v-115h-661zM154 1106q0 -98 61.5 -161.5t155.5 -63.5q95 0 157 63.5t62 161.5q0 100 -62 163.5t-157 63.5q-94 0 -155.5 -64t-61.5 -163z " />
<glyph unicode="&#xbb;" horiz-adv-x="1564" d="M168 377l367 352l-367 354l123 125l483 -479l-481 -479zM766 377l367 352l-367 354l123 125l483 -479l-481 -479z" />
<glyph unicode="&#xbf;" horiz-adv-x="1185" d="M84 379q0 52 13.5 99t33.5 83.5t55.5 72t66.5 59.5t80.5 52.5t84 46t88.5 42.5v141h219v-225q-235 -118 -320.5 -190t-85.5 -167q0 -38 13.5 -74.5t42 -70.5t83 -55t128.5 -21q134 0 211.5 60.5t113.5 183.5l191 -54q-43 -183 -182.5 -287t-341.5 -104q-123 0 -219.5 33 t-155 90.5t-89 130t-30.5 154.5zM506 1112v322h219v-322h-219z" />
<glyph unicode="&#xc0;" horiz-adv-x="1593" d="M16 0l705 1434h151l705 -1434h-252l-145 299h-766l-146 -299h-252zM438 1716l80 156l455 -244l-68 -125zM518 512h557l-262 541l-16 45l-17 -45z" />
<glyph unicode="&#xc1;" horiz-adv-x="1593" d="M16 0l705 1434h151l705 -1434h-252l-145 299h-766l-146 -299h-252zM518 512h557l-262 541l-16 45l-17 -45zM575 1628l457 244l80 -156l-469 -213z" />
<glyph unicode="&#xc2;" horiz-adv-x="1593" d="M16 0l705 1434h151l705 -1434h-252l-145 299h-766l-146 -299h-252zM453 1606l335 284l338 -284l-90 -97l-248 205l-247 -205zM518 512h557l-262 541l-16 45l-17 -45z" />
<glyph unicode="&#xc3;" horiz-adv-x="1593" d="M16 0l705 1434h151l705 -1434h-252l-145 299h-766l-146 -299h-252zM381 1567q0 107 73 177.5t185 70.5q47 0 91.5 -19t73 -41.5t63 -41.5t63.5 -19q41 0 68.5 27t27.5 67h180q0 -108 -72.5 -178t-185.5 -70q-44 0 -87.5 18.5t-72.5 41t-65 41t-66 18.5q-43 0 -70.5 -26 t-27.5 -66h-178zM518 512h557l-262 541l-16 45l-17 -45z" />
<glyph unicode="&#xc4;" horiz-adv-x="1593" d="M16 0l705 1434h151l705 -1434h-252l-145 299h-766l-146 -299h-252zM418 1686q0 47 34 80.5t83 33.5t82.5 -33t33.5 -81q0 -50 -33.5 -83.5t-82.5 -33.5t-83 33.5t-34 83.5zM518 512h557l-262 541l-16 45l-17 -45zM926 1686q0 48 33.5 81t82.5 33t83 -33.5t34 -80.5 q0 -50 -33.5 -83.5t-83.5 -33.5q-49 0 -82.5 33.5t-33.5 83.5z" />
<glyph unicode="&#xc5;" horiz-adv-x="1593" d="M16 0l682 1386q-61 28 -97 83.5t-36 123.5q0 96 68 164t164 68q95 0 163 -68.5t68 -163.5q0 -68 -36.5 -123.5t-96.5 -83.5l682 -1386h-252l-145 299h-766l-146 -299h-252zM518 512h557l-262 541l-16 45l-17 -45zM686 1595q0 -44 33.5 -77t77.5 -33q46 0 79 33t33 77 q0 47 -33 79t-79 32q-45 0 -78 -32t-33 -79z" />
<glyph unicode="&#xc6;" horiz-adv-x="2035" d="M16 0l959 1434h915v-213h-688v-373h604v-207h-604v-428h701v-213h-928v303h-486l-200 -303h-273zM604 471h371v569l-37 -65z" />
<glyph unicode="&#xc7;" horiz-adv-x="1554" d="M84 717q0 159 58.5 298t158 237t236.5 154t290 56q208 0 381 -102t271 -275l-232 -61q-66 100 -178.5 157.5t-241.5 57.5q-223 0 -365.5 -145.5t-142.5 -376.5q0 -115 39 -213t106.5 -165t161 -104.5t201.5 -37.5q144 0 264.5 69t182.5 185l227 -62q-85 -181 -249.5 -292 t-370.5 -124l-29 -79q92 2 153.5 -52.5t61.5 -146.5q0 -99 -63.5 -151t-163.5 -52h-183l50 125h133q46 0 71 21t25 55q0 36 -26.5 58t-69.5 22h-160l72 202q-140 13 -263 74t-212.5 157.5t-141 229t-51.5 281.5z" />
<glyph unicode="&#xc8;" horiz-adv-x="1312" d="M180 0v1434h985v-213h-757v-373h604v-207h-604v-428h770v-213h-998zM336 1716l80 156l454 -244l-67 -125z" />
<glyph unicode="&#xc9;" horiz-adv-x="1312" d="M180 0v1434h985v-213h-757v-373h604v-207h-604v-428h770v-213h-998zM473 1628l457 244l80 -156l-469 -213z" />
<glyph unicode="&#xca;" horiz-adv-x="1312" d="M180 0v1434h985v-213h-757v-373h604v-207h-604v-428h770v-213h-998zM350 1606l336 284l338 -284l-90 -97l-248 205l-248 -205z" />
<glyph unicode="&#xcb;" horiz-adv-x="1312" d="M180 0v1434h985v-213h-757v-373h604v-207h-604v-428h770v-213h-998zM315 1686q0 47 34 80.5t83 33.5t83 -33.5t34 -80.5q0 -50 -33.5 -83.5t-83.5 -33.5t-83.5 33.5t-33.5 83.5zM823 1686q0 47 34 80.5t83 33.5t83 -33.5t34 -80.5q0 -50 -33.5 -83.5t-83.5 -33.5 t-83.5 33.5t-33.5 83.5z" />
<glyph unicode="&#xcc;" horiz-adv-x="587" d="M-63 1716l79 156l455 -244l-68 -125zM180 0v1434h228v-1434h-228z" />
<glyph unicode="&#xcd;" horiz-adv-x="587" d="M74 1628l456 244l80 -156l-469 -213zM180 0v1434h228v-1434h-228z" />
<glyph unicode="&#xce;" horiz-adv-x="587" d="M-49 1606l336 284l338 -284l-90 -97l-248 205l-248 -205zM180 0v1434h228v-1434h-228z" />
<glyph unicode="&#xcf;" horiz-adv-x="587" d="M-84 1686q0 47 34 80.5t83 33.5t83 -33.5t34 -80.5q0 -50 -34 -83.5t-83 -33.5t-83 33.5t-34 83.5zM180 0v1434h228v-1434h-228zM424 1686q0 47 34 80.5t83 33.5t82.5 -33t33.5 -81q0 -50 -33.5 -83.5t-82.5 -33.5t-83 33.5t-34 83.5z" />
<glyph unicode="&#xd0;" horiz-adv-x="1634" d="M84 625v204h113v605h612q153 0 289 -53t235.5 -146.5t158 -229.5t58.5 -294q0 -156 -58 -290t-157 -225.5t-233.5 -143.5t-284.5 -52h-620v625h-113zM424 213h393q135 0 247.5 58.5t181.5 173.5t69 266q0 115 -40.5 211.5t-109 161.5t-161 101t-195.5 36h-385v-392h315 v-204h-315v-412z" />
<glyph unicode="&#xd1;" horiz-adv-x="1599" d="M193 0v1434h213l751 -977l27 -51l-4 59v969h227v-1434h-213l-750 985l-28 47l4 -55v-977h-227zM395 1567q0 107 73 177.5t185 70.5q47 0 91.5 -19t73 -41.5t63 -41.5t63.5 -19q41 0 68.5 27t27.5 67h181q0 -108 -72.5 -178t-185.5 -70q-44 0 -87.5 18.5t-72.5 41t-65 41 t-66 18.5q-43 0 -71 -26t-28 -66h-178z" />
<glyph unicode="&#xd2;" d="M84 717q0 159 58.5 298t158 237t236.5 154t290 56q204 0 374.5 -95t271 -266.5t100.5 -383.5q0 -159 -59 -298.5t-159.5 -237t-237.5 -154t-290 -56.5q-204 0 -374 95.5t-269.5 267t-99.5 383.5zM319 717q0 -231 143 -376.5t365 -145.5q221 0 365.5 146t144.5 376 q0 232 -144 377t-366 145q-223 0 -365.5 -144.5t-142.5 -377.5zM481 1716l80 156l455 -244l-68 -125z" />
<glyph unicode="&#xd3;" d="M84 717q0 159 58.5 298t158 237t236.5 154t290 56q204 0 374.5 -95t271 -266.5t100.5 -383.5q0 -159 -59 -298.5t-159.5 -237t-237.5 -154t-290 -56.5q-204 0 -374 95.5t-269.5 267t-99.5 383.5zM319 717q0 -231 143 -376.5t365 -145.5q221 0 365.5 146t144.5 376 q0 232 -144 377t-366 145q-223 0 -365.5 -144.5t-142.5 -377.5zM618 1628l457 244l80 -156l-469 -213z" />
<glyph unicode="&#xd4;" d="M84 717q0 159 58.5 298t158 237t236.5 154t290 56q204 0 374.5 -95t271 -266.5t100.5 -383.5q0 -159 -59 -298.5t-159.5 -237t-237.5 -154t-290 -56.5q-204 0 -374 95.5t-269.5 267t-99.5 383.5zM319 717q0 -231 143 -376.5t365 -145.5q221 0 365.5 146t144.5 376 q0 232 -144 377t-366 145q-223 0 -365.5 -144.5t-142.5 -377.5zM496 1606l335 284l338 -284l-90 -97l-248 205l-247 -205z" />
<glyph unicode="&#xd5;" d="M84 717q0 159 58.5 298t158 237t236.5 154t290 56q204 0 374.5 -95t271 -266.5t100.5 -383.5q0 -159 -59 -298.5t-159.5 -237t-237.5 -154t-290 -56.5q-204 0 -374 95.5t-269.5 267t-99.5 383.5zM319 717q0 -231 143 -376.5t365 -145.5q221 0 365.5 146t144.5 376 q0 232 -144 377t-366 145q-223 0 -365.5 -144.5t-142.5 -377.5zM424 1567q0 107 73 177.5t185 70.5q47 0 91.5 -19t73 -41.5t63 -41.5t63.5 -19q41 0 68.5 27t27.5 67h180q0 -108 -72.5 -178t-185.5 -70q-44 0 -87.5 18.5t-72.5 41t-65 41t-66 18.5q-43 0 -70.5 -26 t-27.5 -66h-178z" />
<glyph unicode="&#xd6;" d="M84 717q0 159 58.5 298t158 237t236.5 154t290 56q204 0 374.5 -95t271 -266.5t100.5 -383.5q0 -159 -59 -298.5t-159.5 -237t-237.5 -154t-290 -56.5q-204 0 -374 95.5t-269.5 267t-99.5 383.5zM319 717q0 -231 143 -376.5t365 -145.5q221 0 365.5 146t144.5 376 q0 232 -144 377t-366 145q-223 0 -365.5 -144.5t-142.5 -377.5zM461 1686q0 47 34 80.5t83 33.5t82.5 -33t33.5 -81q0 -50 -33.5 -83.5t-82.5 -33.5q-50 0 -83.5 33.5t-33.5 83.5zM969 1686q0 48 33.5 81t82.5 33t83 -33.5t34 -80.5q0 -50 -34 -83.5t-83 -33.5t-82.5 33.5 t-33.5 83.5z" />
<glyph unicode="&#xd7;" horiz-adv-x="1212" d="M180 453l275 274l-275 274l150 150l276 -274l277 276l149 -149l-276 -277l276 -276l-151 -152l-275 276l-274 -274z" />
<glyph unicode="&#xd8;" d="M84 717q0 159 58.5 298t158 237t236.5 154t290 56q203 0 371 -94l74 96l162 -121l-74 -96q101 -102 157 -238t56 -292q0 -159 -59 -298.5t-159.5 -237t-237.5 -154t-290 -56.5q-198 0 -368 95l-80 -105l-162 123l80 102q-102 102 -157.5 238t-55.5 293zM319 717 q0 -207 117 -346l625 817q-108 51 -234 51q-223 0 -365.5 -144.5t-142.5 -377.5zM596 246q105 -51 231 -51q221 0 365.5 146t144.5 376q0 207 -116 348z" />
<glyph unicode="&#xd9;" horiz-adv-x="1523" d="M147 608v826h228v-834q0 -196 101 -307t286 -111q187 0 287 111t100 307v834h227v-826q0 -300 -164 -468.5t-450 -168.5q-287 0 -451 168t-164 469zM406 1716l79 156l455 -244l-68 -125z" />
<glyph unicode="&#xda;" horiz-adv-x="1523" d="M147 608v826h228v-834q0 -196 101 -307t286 -111q187 0 287 111t100 307v834h227v-826q0 -300 -164 -468.5t-450 -168.5q-287 0 -451 168t-164 469zM543 1628l456 244l80 -156l-469 -213z" />
<glyph unicode="&#xdb;" horiz-adv-x="1523" d="M147 608v826h228v-834q0 -196 101 -307t286 -111q187 0 287 111t100 307v834h227v-826q0 -300 -164 -468.5t-450 -168.5q-287 0 -451 168t-164 469zM420 1606l336 284l338 -284l-90 -97l-248 205l-248 -205z" />
<glyph unicode="&#xdc;" horiz-adv-x="1523" d="M147 608v826h228v-834q0 -196 101 -307t286 -111q187 0 287 111t100 307v834h227v-826q0 -300 -164 -468.5t-450 -168.5q-287 0 -451 168t-164 469zM385 1686q0 47 34 80.5t83 33.5t82.5 -33t33.5 -81q0 -50 -33.5 -83.5t-82.5 -33.5q-50 0 -83.5 33.5t-33.5 83.5z M893 1686q0 47 34 80.5t83 33.5t82.5 -33t33.5 -81q0 -50 -33.5 -83.5t-82.5 -33.5q-50 0 -83.5 33.5t-33.5 83.5z" />
<glyph unicode="&#xdd;" horiz-adv-x="1409" d="M18 1434h275l387 -508l25 -45l26 45l385 508h277l-574 -764v-670h-227v670zM481 1628l457 244l80 -156l-469 -213z" />
<glyph unicode="&#xde;" horiz-adv-x="1271" d="M180 0v1434h228v-248h276q227 0 367.5 -131.5t140.5 -337.5q0 -203 -140.5 -334t-367.5 -131h-276v-252h-228zM408 465h280q123 0 195.5 70t72.5 182q0 111 -73 184t-195 74h-280v-510z" />
<glyph unicode="&#xdf;" horiz-adv-x="1630" d="M180 0v1434h1227l-340 -592q228 -12 354.5 -127t126.5 -297q0 -192 -139.5 -319.5t-359.5 -127.5q-162 0 -299 77t-207 204l215 59q44 -69 117 -107t163 -38q125 0 203 72t78 178q0 99 -74.5 168t-206.5 73h-188v185l199 344l34 39l-61 -4h-614v-1221h-228z" />
<glyph unicode="&#xe0;" horiz-adv-x="1593" d="M16 0l705 1434h151l705 -1434h-252l-145 299h-766l-146 -299h-252zM438 1716l80 156l455 -244l-68 -125zM518 512h557l-262 541l-16 45l-17 -45z" />
<glyph unicode="&#xe1;" horiz-adv-x="1593" d="M16 0l705 1434h151l705 -1434h-252l-145 299h-766l-146 -299h-252zM518 512h557l-262 541l-16 45l-17 -45zM575 1628l457 244l80 -156l-469 -213z" />
<glyph unicode="&#xe2;" horiz-adv-x="1593" d="M16 0l705 1434h151l705 -1434h-252l-145 299h-766l-146 -299h-252zM453 1606l335 284l338 -284l-90 -97l-248 205l-247 -205zM518 512h557l-262 541l-16 45l-17 -45z" />
<glyph unicode="&#xe3;" horiz-adv-x="1593" d="M16 0l705 1434h151l705 -1434h-252l-145 299h-766l-146 -299h-252zM381 1567q0 107 73 177.5t185 70.5q47 0 91.5 -19t73 -41.5t63 -41.5t63.5 -19q41 0 68.5 27t27.5 67h180q0 -108 -72.5 -178t-185.5 -70q-44 0 -87.5 18.5t-72.5 41t-65 41t-66 18.5q-43 0 -70.5 -26 t-27.5 -66h-178zM518 512h557l-262 541l-16 45l-17 -45z" />
<glyph unicode="&#xe4;" horiz-adv-x="1593" d="M16 0l705 1434h151l705 -1434h-252l-145 299h-766l-146 -299h-252zM418 1686q0 47 34 80.5t83 33.5t82.5 -33t33.5 -81q0 -50 -33.5 -83.5t-82.5 -33.5t-83 33.5t-34 83.5zM518 512h557l-262 541l-16 45l-17 -45zM926 1686q0 48 33.5 81t82.5 33t83 -33.5t34 -80.5 q0 -50 -33.5 -83.5t-83.5 -33.5q-49 0 -82.5 33.5t-33.5 83.5z" />
<glyph unicode="&#xe5;" horiz-adv-x="1593" d="M16 0l682 1386q-61 28 -97 83.5t-36 123.5q0 96 68 164t164 68q95 0 163 -68.5t68 -163.5q0 -68 -36.5 -123.5t-96.5 -83.5l682 -1386h-252l-145 299h-766l-146 -299h-252zM518 512h557l-262 541l-16 45l-17 -45zM686 1595q0 -44 33.5 -77t77.5 -33q46 0 79 33t33 77 q0 47 -33 79t-79 32q-45 0 -78 -32t-33 -79z" />
<glyph unicode="&#xe6;" horiz-adv-x="2035" d="M16 0l959 1434h915v-213h-688v-373h604v-207h-604v-428h701v-213h-928v303h-486l-200 -303h-273zM604 471h371v569l-37 -65z" />
<glyph unicode="&#xe7;" horiz-adv-x="1554" d="M84 717q0 159 58.5 298t158 237t236.5 154t290 56q208 0 381 -102t271 -275l-232 -61q-66 100 -178.5 157.5t-241.5 57.5q-223 0 -365.5 -145.5t-142.5 -376.5q0 -115 39 -213t106.5 -165t161 -104.5t201.5 -37.5q144 0 264.5 69t182.5 185l227 -62q-85 -181 -249.5 -292 t-370.5 -124l-29 -79q92 2 153.5 -52.5t61.5 -146.5q0 -99 -63.5 -151t-163.5 -52h-183l50 125h133q46 0 71 21t25 55q0 36 -26.5 58t-69.5 22h-160l72 202q-140 13 -263 74t-212.5 157.5t-141 229t-51.5 281.5z" />
<glyph unicode="&#xe8;" horiz-adv-x="1312" d="M180 0v1434h985v-213h-757v-373h604v-207h-604v-428h770v-213h-998zM330 1716l80 156l454 -244l-67 -125z" />
<glyph unicode="&#xe9;" horiz-adv-x="1312" d="M180 0v1434h985v-213h-757v-373h604v-207h-604v-428h770v-213h-998zM467 1628l457 244l80 -156l-469 -213z" />
<glyph unicode="&#xea;" horiz-adv-x="1312" d="M180 0v1434h985v-213h-757v-373h604v-207h-604v-428h770v-213h-998zM344 1606l336 284l338 -284l-90 -97l-248 205l-248 -205z" />
<glyph unicode="&#xeb;" horiz-adv-x="1312" d="M180 0v1434h985v-213h-757v-373h604v-207h-604v-428h770v-213h-998zM309 1686q0 47 34 80.5t83 33.5t83 -33.5t34 -80.5q0 -50 -33.5 -83.5t-83.5 -33.5t-83.5 33.5t-33.5 83.5zM817 1686q0 47 34 80.5t83 33.5t83 -33.5t34 -80.5q0 -50 -33.5 -83.5t-83.5 -33.5 t-83.5 33.5t-33.5 83.5z" />
<glyph unicode="&#xec;" horiz-adv-x="587" d="M-63 1716l79 156l455 -244l-68 -125zM180 0v1434h228v-1434h-228z" />
<glyph unicode="&#xed;" horiz-adv-x="587" d="M74 1628l456 244l80 -156l-469 -213zM180 0v1434h228v-1434h-228z" />
<glyph unicode="&#xee;" horiz-adv-x="587" d="M-49 1606l336 284l338 -284l-90 -97l-248 205l-248 -205zM180 0v1434h228v-1434h-228z" />
<glyph unicode="&#xef;" horiz-adv-x="587" d="M-84 1686q0 47 34 80.5t83 33.5t83 -33.5t34 -80.5q0 -50 -34 -83.5t-83 -33.5t-83 33.5t-34 83.5zM180 0v1434h228v-1434h-228zM424 1686q0 47 34 80.5t83 33.5t82.5 -33t33.5 -81q0 -50 -33.5 -83.5t-82.5 -33.5t-83 33.5t-34 83.5z" />
<glyph unicode="&#xf0;" horiz-adv-x="1634" d="M84 625v204h113v605h612q153 0 289 -53t235.5 -146.5t158 -229.5t58.5 -294q0 -156 -58 -290t-157 -225.5t-233.5 -143.5t-284.5 -52h-620v625h-113zM424 213h393q135 0 247.5 58.5t181.5 173.5t69 266q0 115 -40.5 211.5t-109 161.5t-161 101t-195.5 36h-385v-392h315 v-204h-315v-412z" />
<glyph unicode="&#xf1;" horiz-adv-x="1574" d="M193 0v1434h213l751 -977l27 -51l-4 59v969h227v-1434h-213l-750 985l-28 47l4 -55v-977h-227zM373 1567q0 107 73 177.5t185 70.5q47 0 91.5 -19t73 -41.5t63 -41.5t63.5 -19q41 0 68.5 27t27.5 67h180q0 -108 -72.5 -178t-185.5 -70q-44 0 -87.5 18.5t-72.5 41t-65 41 t-66 18.5q-43 0 -70.5 -26t-27.5 -66h-178z" />
<glyph unicode="&#xf2;" d="M84 717q0 159 58.5 298t158 237t236.5 154t290 56q204 0 374.5 -95t271 -266.5t100.5 -383.5q0 -159 -59 -298.5t-159.5 -237t-237.5 -154t-290 -56.5q-204 0 -374 95.5t-269.5 267t-99.5 383.5zM319 717q0 -231 143 -376.5t365 -145.5q221 0 365.5 146t144.5 376 q0 232 -144 377t-366 145q-223 0 -365.5 -144.5t-142.5 -377.5zM477 1716l80 156l455 -244l-68 -125z" />
<glyph unicode="&#xf3;" d="M84 717q0 159 58.5 298t158 237t236.5 154t290 56q204 0 374.5 -95t271 -266.5t100.5 -383.5q0 -159 -59 -298.5t-159.5 -237t-237.5 -154t-290 -56.5q-204 0 -374 95.5t-269.5 267t-99.5 383.5zM319 717q0 -231 143 -376.5t365 -145.5q221 0 365.5 146t144.5 376 q0 232 -144 377t-366 145q-223 0 -365.5 -144.5t-142.5 -377.5zM614 1628l457 244l80 -156l-469 -213z" />
<glyph unicode="&#xf4;" d="M84 717q0 159 58.5 298t158 237t236.5 154t290 56q204 0 374.5 -95t271 -266.5t100.5 -383.5q0 -159 -59 -298.5t-159.5 -237t-237.5 -154t-290 -56.5q-204 0 -374 95.5t-269.5 267t-99.5 383.5zM319 717q0 -231 143 -376.5t365 -145.5q221 0 365.5 146t144.5 376 q0 232 -144 377t-366 145q-223 0 -365.5 -144.5t-142.5 -377.5zM492 1606l335 284l338 -284l-90 -97l-248 205l-247 -205z" />
<glyph unicode="&#xf5;" d="M84 717q0 159 58.5 298t158 237t236.5 154t290 56q204 0 374.5 -95t271 -266.5t100.5 -383.5q0 -159 -59 -298.5t-159.5 -237t-237.5 -154t-290 -56.5q-204 0 -374 95.5t-269.5 267t-99.5 383.5zM319 717q0 -231 143 -376.5t365 -145.5q221 0 365.5 146t144.5 376 q0 232 -144 377t-366 145q-223 0 -365.5 -144.5t-142.5 -377.5zM420 1567q0 107 73 177.5t185 70.5q47 0 91.5 -19t73 -41.5t63 -41.5t63.5 -19q41 0 68.5 27t27.5 67h180q0 -108 -72.5 -178t-185.5 -70q-44 0 -87.5 18.5t-72.5 41t-65 41t-66 18.5q-43 0 -70.5 -26 t-27.5 -66h-178z" />
<glyph unicode="&#xf6;" d="M84 717q0 159 58.5 298t158 237t236.5 154t290 56q204 0 374.5 -95t271 -266.5t100.5 -383.5q0 -159 -59 -298.5t-159.5 -237t-237.5 -154t-290 -56.5q-204 0 -374 95.5t-269.5 267t-99.5 383.5zM319 717q0 -231 143 -376.5t365 -145.5q221 0 365.5 146t144.5 376 q0 232 -144 377t-366 145q-223 0 -365.5 -144.5t-142.5 -377.5zM457 1686q0 48 33.5 81t82.5 33t83 -33.5t34 -80.5q0 -50 -34 -83.5t-83 -33.5t-82.5 33.5t-33.5 83.5zM965 1686q0 48 33.5 81t82.5 33t83 -33.5t34 -80.5q0 -50 -34 -83.5t-83 -33.5t-82.5 33.5t-33.5 83.5z " />
<glyph unicode="&#xf7;" horiz-adv-x="1349" d="M180 633v188h989v-188h-989zM553 272q0 51 35.5 86t85.5 35q51 0 86 -35.5t35 -85.5q0 -51 -35 -85.5t-86 -34.5t-86 34.5t-35 85.5zM553 1184q0 51 35.5 86t85.5 35q51 0 86 -35.5t35 -85.5q0 -51 -35 -86t-86 -35t-86 35t-35 86z" />
<glyph unicode="&#xf8;" d="M84 717q0 159 58.5 298t158 237t236.5 154t290 56q203 0 371 -94l74 96l162 -121l-74 -96q101 -102 157 -238t56 -292q0 -159 -59 -298.5t-159.5 -237t-237.5 -154t-290 -56.5q-198 0 -368 95l-80 -105l-162 123l80 102q-102 102 -157.5 238t-55.5 293zM319 717 q0 -207 117 -346l625 817q-108 51 -234 51q-223 0 -365.5 -144.5t-142.5 -377.5zM596 246q105 -51 231 -51q221 0 365.5 146t144.5 376q0 207 -116 348z" />
<glyph unicode="&#xf9;" horiz-adv-x="1523" d="M147 608v826h228v-834q0 -196 101 -307t286 -111q187 0 287 111t100 307v834h227v-826q0 -300 -164 -468.5t-450 -168.5q-287 0 -451 168t-164 469zM406 1716l79 156l455 -244l-68 -125z" />
<glyph unicode="&#xfa;" horiz-adv-x="1523" d="M147 608v826h228v-834q0 -196 101 -307t286 -111q187 0 287 111t100 307v834h227v-826q0 -300 -164 -468.5t-450 -168.5q-287 0 -451 168t-164 469zM543 1628l456 244l80 -156l-469 -213z" />
<glyph unicode="&#xfb;" horiz-adv-x="1523" d="M147 608v826h228v-834q0 -196 101 -307t286 -111q187 0 287 111t100 307v834h227v-826q0 -300 -164 -468.5t-450 -168.5q-287 0 -451 168t-164 469zM420 1606l336 284l338 -284l-90 -97l-248 205l-248 -205z" />
<glyph unicode="&#xfc;" horiz-adv-x="1523" d="M147 608v826h228v-834q0 -196 101 -307t286 -111q187 0 287 111t100 307v834h227v-826q0 -300 -164 -468.5t-450 -168.5q-287 0 -451 168t-164 469zM385 1686q0 47 34 80.5t83 33.5t82.5 -33t33.5 -81q0 -50 -33.5 -83.5t-82.5 -33.5q-50 0 -83.5 33.5t-33.5 83.5z M893 1686q0 47 34 80.5t83 33.5t82.5 -33t33.5 -81q0 -50 -33.5 -83.5t-82.5 -33.5q-50 0 -83.5 33.5t-33.5 83.5z" />
<glyph unicode="&#xfd;" horiz-adv-x="1409" d="M18 1434h275l387 -508l25 -45l26 45l385 508h277l-574 -764v-670h-227v670zM481 1628l457 244l80 -156l-469 -213z" />
<glyph unicode="&#xfe;" horiz-adv-x="1271" d="M180 0v1434h228v-248h276q227 0 367.5 -131.5t140.5 -337.5q0 -203 -140.5 -334t-367.5 -131h-276v-252h-228zM408 465h280q123 0 195.5 70t72.5 182q0 111 -73 184t-195 74h-280v-510z" />
<glyph unicode="&#xff;" horiz-adv-x="1409" d="M18 1434h275l387 -508l25 -45l26 45l385 508h277l-574 -764v-670h-227v670zM324 1686q0 48 33.5 81t82.5 33t83 -33.5t34 -80.5q0 -50 -33.5 -83.5t-83.5 -33.5q-49 0 -82.5 33.5t-33.5 83.5zM831 1686q0 47 34 80.5t83 33.5t83 -33.5t34 -80.5q0 -50 -33.5 -83.5 t-83.5 -33.5t-83.5 33.5t-33.5 83.5z" />
<glyph unicode="&#x152;" horiz-adv-x="2166" d="M84 717q0 158 58 295t157.5 231.5t235.5 148.5t288 54q143 0 281 -53v41h915v-213h-688v-373h606v-207h-606v-428h701v-213h-928v43q-135 -55 -281 -55q-152 0 -288 54t-235.5 148.5t-157.5 231.5t-58 295zM319 717q0 -230 144.5 -373t359.5 -143q156 0 281 86v862 q-130 86 -281 86q-141 0 -255 -63t-181.5 -182t-67.5 -273z" />
<glyph unicode="&#x153;" horiz-adv-x="2166" d="M84 717q0 158 58 295t157.5 231.5t235.5 148.5t288 54q143 0 281 -53v41h915v-213h-688v-373h606v-207h-606v-428h701v-213h-928v43q-135 -55 -281 -55q-152 0 -288 54t-235.5 148.5t-157.5 231.5t-58 295zM319 717q0 -230 144.5 -373t359.5 -143q156 0 281 86v862 q-130 86 -281 86q-141 0 -255 -63t-181.5 -182t-67.5 -273z" />
<glyph unicode="&#x178;" horiz-adv-x="1409" d="M18 1434h275l387 -508l25 -45l26 45l385 508h277l-574 -764v-670h-227v670zM324 1686q0 48 33.5 81t82.5 33t83 -33.5t34 -80.5q0 -50 -33.5 -83.5t-83.5 -33.5q-49 0 -82.5 33.5t-33.5 83.5zM831 1686q0 47 34 80.5t83 33.5t83 -33.5t34 -80.5q0 -50 -33.5 -83.5 t-83.5 -33.5t-83.5 33.5t-33.5 83.5z" />
<glyph unicode="&#x2c6;" horiz-adv-x="776" d="M14 1606l336 284l338 -284l-90 -97l-248 205l-248 -205z" />
<glyph unicode="&#x2dc;" horiz-adv-x="903" d="M2 1567q0 107 73 177.5t185 70.5q47 0 91.5 -19t73 -41.5t63 -41.5t63.5 -19q41 0 68.5 27t27.5 67h180q0 -108 -72.5 -178t-185.5 -70q-44 0 -87.5 18.5t-72.5 41t-64.5 41t-65.5 18.5q-43 0 -71 -26t-28 -66h-178z" />
<glyph unicode="&#x2000;" horiz-adv-x="945" />
<glyph unicode="&#x2001;" horiz-adv-x="1890" />
<glyph unicode="&#x2002;" horiz-adv-x="945" />
<glyph unicode="&#x2003;" horiz-adv-x="1890" />
<glyph unicode="&#x2004;" horiz-adv-x="630" />
<glyph unicode="&#x2005;" horiz-adv-x="472" />
<glyph unicode="&#x2006;" horiz-adv-x="315" />
<glyph unicode="&#x2007;" horiz-adv-x="315" />
<glyph unicode="&#x2008;" horiz-adv-x="236" />
<glyph unicode="&#x2009;" horiz-adv-x="378" />
<glyph unicode="&#x200a;" horiz-adv-x="105" />
<glyph unicode="&#x2010;" horiz-adv-x="804" d="M82 623v208h641v-208h-641z" />
<glyph unicode="&#x2011;" horiz-adv-x="804" d="M82 623v208h641v-208h-641z" />
<glyph unicode="&#x2012;" horiz-adv-x="804" d="M82 623v208h641v-208h-641z" />
<glyph unicode="&#x2013;" horiz-adv-x="1021" d="M82 623v208h858v-208h-858z" />
<glyph unicode="&#x2014;" horiz-adv-x="1902" d="M82 623v208h1739v-208h-1739z" />
<glyph unicode="&#x2018;" horiz-adv-x="634" d="M193 1112q0 90 53 184t131 164h90q-49 -41 -89 -114.5t-40 -128.5l-23 -9l23 -4q39 -2 69.5 -32.5t30.5 -79.5q0 -52 -36 -86.5t-89 -34.5q-50 0 -85 39.5t-35 101.5z" />
<glyph unicode="&#x2019;" horiz-adv-x="634" d="M180 971q49 41 89 114.5t40 128.5l23 9l-23 4q-39 2 -69.5 32.5t-30.5 79.5q0 52 36 86.5t89 34.5q51 0 86 -39.5t35 -101.5q0 -90 -53.5 -184t-131.5 -164h-90z" />
<glyph unicode="&#x201a;" horiz-adv-x="634" d="M180 -270q49 41 89 114.5t40 128.5l23 9l-23 4q-39 2 -69.5 32.5t-30.5 79.5q0 52 36 86.5t89 34.5q51 0 86 -39.5t35 -101.5q0 -90 -53.5 -184t-131.5 -164h-90z" />
<glyph unicode="&#x201c;" horiz-adv-x="1042" d="M193 1112q0 90 53 184t131 164h90q-49 -41 -89 -114.5t-40 -128.5l-23 -9l23 -4q39 -2 69.5 -32.5t30.5 -79.5q0 -52 -36 -86.5t-89 -34.5q-50 0 -85 39.5t-35 101.5zM600 1112q0 90 53 184t131 164h90q-49 -41 -89 -114.5t-40 -128.5l-22 -9l22 -4q39 -2 70 -32.5 t31 -79.5q0 -52 -36 -86.5t-89 -34.5q-51 0 -86 39.5t-35 101.5z" />
<glyph unicode="&#x201d;" horiz-adv-x="1042" d="M168 971q49 41 89 114.5t40 128.5l22 9l-22 4q-39 2 -69.5 32.5t-30.5 79.5q0 52 36 86.5t89 34.5q50 0 85 -39.5t35 -101.5q0 -90 -53 -184t-131 -164h-90zM575 971q49 41 89.5 114.5t40.5 128.5l22 9l-22 4q-39 2 -70 32.5t-31 79.5q0 52 36 86.5t89 34.5 q51 0 86 -39.5t35 -101.5q0 -90 -53 -184t-131 -164h-91z" />
<glyph unicode="&#x201e;" horiz-adv-x="1024" d="M168 -270q49 41 89 114.5t40 128.5l22 9l-22 4q-39 2 -69.5 32.5t-30.5 79.5q0 52 36 86.5t89 34.5q50 0 85 -39.5t35 -101.5q0 -90 -53 -184t-131 -164h-90zM557 -270q49 41 89 114.5t40 128.5l23 9l-23 4q-39 2 -69.5 32.5t-30.5 79.5q0 52 36 86.5t89 34.5 q50 0 85 -39.5t35 -101.5q0 -90 -53 -184t-131 -164h-90z" />
<glyph unicode="&#x2022;" horiz-adv-x="794" d="M180 727q0 90 63.5 152.5t155.5 62.5q89 0 152 -63t63 -152q0 -92 -62.5 -155.5t-152.5 -63.5q-92 0 -155.5 63.5t-63.5 155.5z" />
<glyph unicode="&#x2026;" horiz-adv-x="1531" d="M123 72q0 41 30 69.5t70 28.5q41 0 70 -29t29 -69q0 -41 -29 -71t-70 -30t-70.5 30t-29.5 71zM655 72q0 41 30.5 69.5t70.5 28.5q41 0 69.5 -29t28.5 -69q0 -42 -28.5 -71.5t-69.5 -29.5t-71 30t-30 71zM1208 72q0 41 30.5 69.5t70.5 28.5q41 0 69.5 -29t28.5 -69 q0 -42 -28.5 -71.5t-69.5 -29.5t-71 30t-30 71z" />
<glyph unicode="&#x202f;" horiz-adv-x="378" />
<glyph unicode="&#x2039;" horiz-adv-x="964" d="M193 729l481 -479l125 127l-367 352l367 354l-123 125z" />
<glyph unicode="&#x203a;" horiz-adv-x="964" d="M180 377l367 352l-367 354l123 125l483 -479l-481 -479z" />
<glyph unicode="&#x205f;" horiz-adv-x="472" />
<glyph unicode="&#x20ac;" horiz-adv-x="1642" d="M84 522v154h94v41v37h-94v153h117q62 246 260 398.5t457 152.5q208 0 380 -101.5t267 -273.5l-230 -57q-65 99 -174.5 156t-240.5 57q-167 0 -298.5 -90t-185.5 -242h506v-153h-536q-3 -18 -3 -37q0 -20 3 -41h534v-154h-502q56 -148 186 -235.5t296 -87.5q144 0 262 67 t180 183l227 -58q-90 -192 -269 -304t-402 -112q-258 0 -456 151.5t-259 395.5h-119z" />
<glyph unicode="&#x2122;" horiz-adv-x="1716" d="M37 1303v131h641v-131h-250v-586h-143v586h-248zM801 717v717h135l235 -359l232 359h133v-715h-133v459l4 49l-27 -49l-178 -283h-59l-185 283l-26 49l4 -49v-461h-135z" />
<glyph unicode="&#xe000;" horiz-adv-x="1433" d="M0 0v1434h1434v-1434h-1434z" />
</font>
</defs>
</svg>
