<?xml version="1.0" encoding="utf-8"?>
<!-- Generator: Adobe Illustrator 16.0.0, SVG Export Plug-In . SVG Version: 6.00 Build 0)  -->
<!DOCTYPE svg PUBLIC "-//W3C//DTD SVG 1.1//EN" "http://www.w3.org/Graphics/SVG/1.1/DTD/svg11.dtd">
<svg version="1.1" id="Layer_1" xmlns="http://www.w3.org/2000/svg" xmlns:xlink="http://www.w3.org/1999/xlink" x="0px" y="0px"
	 width="149.498px" height="149.514px" viewBox="0 0 149.498 149.514" enable-background="new 0 0 149.498 149.514"
	 xml:space="preserve">
<g>
	<path fill="#FFFFFF" d="M0,74.772c0,41.279,33.467,74.742,74.754,74.742c41.273,0,74.744-33.463,74.744-74.742
		C149.498,33.462,116.027,0,74.754,0C33.467,0,0,33.462,0,74.772z"/>
	<path fill="#2D2E2D" d="M92.363,52.629V22.121h3.458v-5.99h-41.5v5.99h3.456v31.234l-28.869,69.914l10.824,10.246h70.381
		l10.477-10.264L92.363,52.629z M46.388,92.705h22.077v-4.495H48.246l2.057-4.99h18.162v-4.491H52.159l2.104-5.095h14.201v-4.495
		H56.12l6.151-14.891V22.302h25.598v31.193l19.27,48.206H42.678"/>
</g>
</svg>
