<?xml version="1.0" encoding="utf-8"?>
<!-- Generator: Adobe Illustrator 16.0.0, SVG Export Plug-In . SVG Version: 6.00 Build 0)  -->
<!DOCTYPE svg PUBLIC "-//W3C//DTD SVG 1.1//EN" "http://www.w3.org/Graphics/SVG/1.1/DTD/svg11.dtd">
<svg version="1.1" id="Layer_1" xmlns="http://www.w3.org/2000/svg" xmlns:xlink="http://www.w3.org/1999/xlink" x="0px" y="0px"
	 width="20.674px" height="20.673px" viewBox="0 0 20.674 20.673" enable-background="new 0 0 20.674 20.673" xml:space="preserve">
<path fill="#414141" d="M10.877,10.417c-3.982,1.29-6.104,4.8-6.28,5.099c-1.232-1.369-1.984-3.182-1.984-5.167
	c0-0.077,0-0.157,0.002-0.234c0.338,0.007,4.084,0.055,7.939-1.099c0.221,0.432,0.434,0.871,0.626,1.311
	C11.078,10.355,10.979,10.384,10.877,10.417z M15.459,4.572c-0.139,0.197-1.303,1.76-4.051,2.789
	c-1.264-2.324-2.67-4.236-2.881-4.521c0.58-0.141,1.186-0.215,1.811-0.215C12.301,2.625,14.092,3.361,15.459,4.572z M9.918,7.827
	c-3.615,0.96-6.797,0.946-7.143,0.939c0.5-2.396,2.115-4.39,4.277-5.407C7.256,3.638,8.637,5.551,9.918,7.827z M11.654,11.621
	c0.018-0.008,0.035-0.012,0.053-0.018c1.084,2.818,1.533,5.18,1.648,5.857c-0.93,0.396-1.947,0.615-3.018,0.615
	c-1.787,0-3.434-0.609-4.742-1.631C5.734,16.16,7.299,13.138,11.654,11.621z M17.201,0H3.472C1.564,0,0,1.564,0,3.473v13.729
	c0,1.908,1.564,3.471,3.472,3.471h13.729c1.91,0,3.473-1.562,3.473-3.471V3.473C20.674,1.564,19.111,0,17.201,0z M10.338,19.382
	c-4.988,0-9.045-4.057-9.045-9.044c0-4.988,4.057-9.047,9.045-9.047s9.043,4.059,9.043,9.047
	C19.381,15.326,15.326,19.382,10.338,19.382z M13.152,11.246c2.422-0.389,4.549,0.246,4.812,0.33
	c-0.344,2.148-1.578,4.006-3.311,5.178C14.574,16.285,14.162,14.023,13.152,11.246z M12.004,8.51
	c2.855-1.165,4.15-2.826,4.312-3.046c1.076,1.314,1.727,2.989,1.744,4.812c-0.255-0.055-2.807-0.572-5.377-0.25
	c-0.055-0.131-0.111-0.264-0.168-0.398C12.355,9.252,12.184,8.878,12.004,8.51z"/>
</svg>
