<?xml version="1.0" encoding="utf-8"?>
<!-- Generator: Adobe Illustrator 16.0.0, SVG Export Plug-In . SVG Version: 6.00 Build 0)  -->
<!DOCTYPE svg PUBLIC "-//W3C//DTD SVG 1.1//EN" "http://www.w3.org/Graphics/SVG/1.1/DTD/svg11.dtd">
<svg version="1.1" id="Layer_1" xmlns="http://www.w3.org/2000/svg" xmlns:xlink="http://www.w3.org/1999/xlink" x="0px" y="0px"
	 width="20.674px" height="20.673px" viewBox="0 0 20.674 20.673" enable-background="new 0 0 20.674 20.673" xml:space="preserve">
<path fill="#414141" d="M17.229,0H3.445C1.551,0,0,1.552,0,3.447v13.781c0,1.896,1.551,3.445,3.445,3.445h13.783
	c1.896,0,3.445-1.549,3.445-3.445V3.447C20.674,1.552,19.125,0,17.229,0z M17.578,10.338h-3.365v9.044h-3.875v-9.044H8.469v-2.96
	h1.869v-1.92c0-2.613,1.127-4.167,4.197-4.167h3.537v3.203h-2.891c-0.857-0.001-0.963,0.446-0.963,1.282l-0.006,1.602h3.877
	L17.578,10.338z"/>
</svg>
