<?xml version="1.0" encoding="utf-8"?>
<!-- Generator: Adobe Illustrator 16.0.0, SVG Export Plug-In . SVG Version: 6.00 Build 0)  -->
<!DOCTYPE svg PUBLIC "-//W3C//DTD SVG 1.1//EN" "http://www.w3.org/Graphics/SVG/1.1/DTD/svg11.dtd">
<svg version="1.1" id="Layer_1" xmlns="http://www.w3.org/2000/svg" xmlns:xlink="http://www.w3.org/1999/xlink" x="0px" y="0px"
	 width="20.674px" height="20.673px" viewBox="0 0 20.674 20.673" enable-background="new 0 0 20.674 20.673" xml:space="preserve">
<path fill="#414141" d="M17.229,0H3.448C1.552,0,0.001,1.552,0.001,3.447v13.781c0,1.896,1.551,3.445,3.447,3.445h13.781
	c1.895,0,3.443-1.549,3.443-3.445V3.447C20.673,1.552,19.124,0,17.229,0z"/>
<path fill="#FFFFFF" d="M10.336,3.372c-3.846,0-6.965,3.118-6.965,6.966c0,3.846,3.119,6.965,6.965,6.965
	c3.848,0,6.967-3.119,6.967-6.965C17.303,6.49,14.184,3.372,10.336,3.372z M14.475,14.472c-0.537,0.539-1.164,0.961-1.861,1.254
	c-0.176,0.076-0.357,0.141-0.539,0.197V14.88c0-0.549-0.186-0.953-0.564-1.211c0.236-0.021,0.453-0.055,0.65-0.096
	s0.406-0.1,0.627-0.176c0.219-0.076,0.416-0.17,0.59-0.275c0.174-0.107,0.342-0.246,0.504-0.416c0.16-0.17,0.297-0.361,0.406-0.578
	c0.107-0.215,0.193-0.473,0.258-0.775c0.062-0.301,0.094-0.633,0.094-0.996c0-0.703-0.229-1.302-0.686-1.796
	c0.209-0.544,0.186-1.135-0.068-1.774l-0.17-0.021c-0.117-0.015-0.33,0.036-0.637,0.148c-0.307,0.115-0.65,0.301-1.031,0.559
	c-0.539-0.149-1.098-0.225-1.678-0.225c-0.586,0-1.145,0.075-1.674,0.225C8.455,7.311,8.227,7.176,8.012,7.07
	C7.795,6.961,7.623,6.89,7.494,6.851C7.365,6.813,7.246,6.789,7.133,6.78C7.021,6.771,6.951,6.767,6.92,6.771
	C6.889,6.778,6.865,6.782,6.852,6.787C6.598,7.43,6.574,8.022,6.783,8.561c-0.457,0.494-0.686,1.093-0.686,1.796
	c0,0.363,0.031,0.695,0.094,0.996c0.064,0.303,0.15,0.561,0.26,0.775s0.242,0.408,0.402,0.578c0.164,0.17,0.33,0.309,0.506,0.416
	c0.174,0.105,0.371,0.197,0.592,0.273c0.219,0.078,0.427,0.137,0.625,0.178c0.197,0.041,0.414,0.072,0.65,0.096
	c-0.373,0.254-0.559,0.656-0.559,1.211v1.062c-0.206-0.061-0.408-0.133-0.605-0.217c-0.697-0.295-1.322-0.717-1.859-1.254
	c-0.539-0.537-0.961-1.164-1.256-1.861c-0.305-0.719-0.461-1.484-0.461-2.273c0-0.79,0.156-1.556,0.461-2.278
	c0.295-0.695,0.717-1.321,1.254-1.857C6.74,5.663,7.365,5.24,8.061,4.946c0.721-0.305,1.486-0.46,2.275-0.46
	c0.791,0,1.559,0.155,2.277,0.462c0.697,0.294,1.324,0.715,1.861,1.254c0.537,0.536,0.959,1.162,1.254,1.859
	c0.303,0.721,0.459,1.486,0.459,2.276c0,0.789-0.156,1.555-0.459,2.275C15.434,13.308,15.012,13.935,14.475,14.472z"/>
</svg>
