<?xml version="1.0" encoding="utf-8"?>
<!-- Generator: Adobe Illustrator 16.0.0, SVG Export Plug-In . SVG Version: 6.00 Build 0)  -->
<!DOCTYPE svg PUBLIC "-//W3C//DTD SVG 1.1//EN" "http://www.w3.org/Graphics/SVG/1.1/DTD/svg11.dtd">
<svg version="1.1" id="Layer_1" xmlns="http://www.w3.org/2000/svg" xmlns:xlink="http://www.w3.org/1999/xlink" x="0px" y="0px"
	 width="20.674px" height="20.673px" viewBox="0 0 20.674 20.673" enable-background="new 0 0 20.674 20.673" xml:space="preserve">
<path fill="#414141" d="M0.016,17.558c-0.006-0.051-0.008-0.102-0.012-0.152C0.008,17.457,0.01,17.507,0.016,17.558z M4.764,11.412
	c1.857,0.055,3.104-1.873,2.783-4.305C7.225,4.675,5.459,2.722,3.6,2.667C1.744,2.613,0.498,4.473,0.818,6.907
	C1.139,9.339,2.904,11.355,4.764,11.412z M20.674,5.169V3.447C20.674,1.552,19.125,0,17.23,0H3.445C1.582,0,0.055,1.5,0.002,3.35
	c1.178-1.036,2.814-1.902,4.5-1.902c1.803,0,7.215,0,7.215,0l-1.615,1.364H7.814c1.518,0.582,2.328,2.346,2.328,4.155
	c0,1.518-0.846,2.824-2.039,3.753c-1.166,0.904-1.387,1.287-1.387,2.057c0,0.656,1.248,1.777,1.9,2.236
	c1.906,1.344,2.521,2.592,2.521,4.674c0,0.33-0.041,0.662-0.121,0.986h6.213c1.895,0,3.443-1.549,3.443-3.445V6.461h-3.875v3.877
	h-1.293V6.461h-3.875V5.169h3.875V1.292h1.293v3.878H20.674z M3.752,15.464c0.438,0,0.838-0.01,1.25-0.01
	c-0.547-0.533-0.98-1.184-0.98-1.988c0-0.475,0.152-0.934,0.365-1.342c-0.217,0.016-0.439,0.02-0.668,0.02
	c-1.502,0-2.775-0.486-3.719-1.288v1.356v4.074C1.078,15.773,2.361,15.464,3.752,15.464z M0.068,17.914
	c-0.021-0.109-0.039-0.221-0.049-0.336C0.029,17.693,0.047,17.804,0.068,17.914z M9.197,19.24c-0.305-1.189-1.383-1.779-2.887-2.82
	c-0.547-0.176-1.148-0.279-1.795-0.287c-1.809-0.02-3.494,0.707-4.445,1.783c0.32,1.572,1.717,2.758,3.375,2.758H9.23
	c0.035-0.225,0.055-0.455,0.055-0.695C9.285,19.726,9.254,19.48,9.197,19.24z"/>
</svg>
