<?xml version="1.0" encoding="utf-8"?>
<!-- Generator: Adobe Illustrator 16.0.0, SVG Export Plug-In . SVG Version: 6.00 Build 0)  -->
<!DOCTYPE svg PUBLIC "-//W3C//DTD SVG 1.1//EN" "http://www.w3.org/Graphics/SVG/1.1/DTD/svg11.dtd">
<svg version="1.1" id="Layer_1" xmlns="http://www.w3.org/2000/svg" xmlns:xlink="http://www.w3.org/1999/xlink" x="0px" y="0px"
	 width="49.5px" height="61.675px" viewBox="96 0 49.5 61.675" enable-background="new 96 0 49.5 61.675" xml:space="preserve">
<g>
	<path fill="#ED1F80" d="M96.744,24.263c0,13.395,10.859,24.253,24.257,24.253c13.394,0,24.254-10.859,24.254-24.253
		C145.256,10.857,134.395,0,121.001,0C107.603,0,96.744,10.857,96.744,24.263z"/>
	<path fill="#FFFFFF" d="M126.716,17.077V7.176h1.122V5.232h-13.467v1.943h1.121v10.137l-9.368,22.687l3.512,3.325h22.839
		l3.399-3.328L126.716,17.077z M111.796,30.083h7.165v-1.459h-6.562l0.668-1.619h5.894v-1.458h-5.292l0.684-1.652h4.608v-1.458
		h-4.008l1.997-4.833V7.236h8.306V17.36l6.254,15.642h-20.918"/>
</g>
<g>
	<path fill="#ED1F80" d="M108.943,52.984v8.396h-1.332v-3.682h-4.102v3.682h-1.331v-8.396h1.331v3.479h4.102v-3.479H108.943z"/>
	<path fill="#ED1F80" d="M116.899,60.133v1.247h-5.84v-8.396h5.769v1.247h-4.438v2.184h3.538v1.211h-3.538v2.507H116.899z"/>
	<path fill="#ED1F80" d="M124.4,60.133v1.247h-5.649v-8.396h1.332v7.148H124.4z"/>
	<path fill="#ED1F80" d="M131.347,60.133v1.247h-5.648v-8.396h1.331v7.148H131.347z"/>
	<path fill="#ED1F80" d="M136.089,52.816c2.41,0,4.365,1.835,4.365,4.366c0,2.53-1.955,4.365-4.365,4.365
		c-2.411,0-4.354-1.835-4.354-4.365C131.736,54.651,133.678,52.816,136.089,52.816z M136.089,60.24c1.715,0,2.986-1.247,2.986-3.058
		c0-1.835-1.271-3.059-2.986-3.059c-1.728,0-2.975,1.224-2.975,3.059C133.115,58.993,134.362,60.24,136.089,60.24z"/>
</g>
</svg>
