<?xml version="1.0" encoding="utf-8"?>
<!-- Generator: Adobe Illustrator 16.0.0, SVG Export Plug-In . SVG Version: 6.00 Build 0)  -->
<!DOCTYPE svg PUBLIC "-//W3C//DTD SVG 1.1//EN" "http://www.w3.org/Graphics/SVG/1.1/DTD/svg11.dtd">
<svg version="1.1" id="Layer_1" xmlns="http://www.w3.org/2000/svg" xmlns:xlink="http://www.w3.org/1999/xlink" x="0px" y="0px"
	 width="49.5px" height="61.675px" viewBox="0 0 49.5 61.675" enable-background="new 0 0 49.5 61.675" xml:space="preserve">
<g>
	<path fill="#FF0080" d="M0.495,24.263c0,13.395,10.859,24.253,24.257,24.253c13.393,0,24.254-10.858,24.254-24.253
		C49.006,10.857,38.145,0,24.751,0C11.354,0,0.495,10.857,0.495,24.263z"/>
	<path fill="#FFFFFF" d="M30.467,17.077V7.176h1.121V5.232H18.122v1.943h1.121v10.137L9.875,40l3.513,3.324h22.837l3.4-3.328
		L30.467,17.077z M15.546,30.083h7.165v-1.459h-6.562l0.668-1.619h5.895v-1.458h-5.292l0.685-1.652h4.607v-1.458h-4.008l1.997-4.833
		V7.236h8.305V17.36l6.254,15.642H14.342"/>
</g>
<g>
	<path fill="#FF0080" d="M12.694,52.984v8.396h-1.332v-3.682H7.259v3.682H5.928v-8.396h1.331v3.479h4.103v-3.479H12.694z"/>
	<path fill="#FF0080" d="M20.649,60.132v1.248h-5.84v-8.396h5.77v1.247h-4.438v2.185h3.537v1.211h-3.537v2.506H20.649z"/>
	<path fill="#FF0080" d="M28.15,60.132v1.248h-5.649v-8.396h1.332v7.148H28.15L28.15,60.132z"/>
	<path fill="#FF0080" d="M35.098,60.132v1.248h-5.648v-8.396h1.33v7.148H35.098L35.098,60.132z"/>
	<path fill="#FF0080" d="M39.84,52.816c2.41,0,4.365,1.835,4.365,4.366c0,2.53-1.955,4.364-4.365,4.364
		c-2.412,0-4.355-1.834-4.355-4.364C35.486,54.651,37.428,52.816,39.84,52.816z M39.84,60.24c1.715,0,2.986-1.246,2.986-3.058
		c0-1.835-1.271-3.06-2.986-3.06c-1.729,0-2.975,1.225-2.975,3.06C36.865,58.994,38.111,60.24,39.84,60.24z"/>
</g>
</svg>
