<?xml version="1.0" encoding="utf-8"?>
<!-- Generator: Adobe Illustrator 16.0.0, SVG Export Plug-In . SVG Version: 6.00 Build 0)  -->
<!DOCTYPE svg PUBLIC "-//W3C//DTD SVG 1.1//EN" "http://www.w3.org/Graphics/SVG/1.1/DTD/svg11.dtd">
<svg version="1.1" id="Layer_1" xmlns="http://www.w3.org/2000/svg" xmlns:xlink="http://www.w3.org/1999/xlink" x="0px" y="0px"
	 width="20.674px" height="20.673px" viewBox="0 0 20.674 20.673" enable-background="new 0 0 20.674 20.673" xml:space="preserve">
<path fill="#414141" d="M17.201,0H3.474C1.562,0,0.001,1.564,0.001,3.473v13.729c0,1.908,1.561,3.471,3.473,3.471h13.728
	c1.91,0,3.473-1.562,3.473-3.471V3.473C20.674,1.564,19.111,0,17.201,0z M7.753,16.798H5.169V7.752h2.584V16.798z M6.46,6.461
	c-0.713,0-1.291-0.577-1.291-1.292c0-0.714,0.578-1.291,1.291-1.291c0.715,0,1.293,0.577,1.293,1.291
	C7.753,5.884,7.175,6.461,6.46,6.461z M16.799,16.798h-2.586V11.63c0-0.715-0.578-1.292-1.291-1.292
	c-0.714,0-1.291,0.577-1.291,1.292v5.168H9.044V7.752h2.587v1.606c0.533-0.733,1.348-1.606,2.26-1.606
	c1.607,0,2.908,1.448,2.908,3.231V16.798z"/>
</svg>
