<?xml version="1.0" encoding="utf-8"?>
<!-- Generator: Adobe Illustrator 16.0.0, SVG Export Plug-In . SVG Version: 6.00 Build 0)  -->
<!DOCTYPE svg PUBLIC "-//W3C//DTD SVG 1.1//EN" "http://www.w3.org/Graphics/SVG/1.1/DTD/svg11.dtd">
<svg version="1.1" id="Layer_1" xmlns="http://www.w3.org/2000/svg" xmlns:xlink="http://www.w3.org/1999/xlink" x="0px" y="0px"
	 width="267.5px" height="44.208px" viewBox="0 0 267.5 44.208" enable-background="new 0 0 267.5 44.208" xml:space="preserve">
<g>
	<g>
		<text transform="matrix(1 0 0 1 -3.9727 42.9185)"><tspan x="0" y="0" fill="#FFFFFF" font-family="'Novecentowide-Medium'" font-size="56.3478">open</tspan><tspan x="159.745" y="0" fill="#ED1F80" font-family="'Novecentowide-Medium'" font-size="56.3478">lab</tspan></text>
	</g>
	<g>
		<path fill="none" d="M31.768,4.539V0H20.997v1.741c0.083-0.002,0.161-0.013,0.241-0.013C25.073,1.729,28.662,2.761,31.768,4.539z"
			/>
		<path fill="none" d="M39.872,33.4l-0.057-0.148c-0.027,0.053-0.062,0.098-0.091,0.148H39.872z"/>
		<path fill="#FFFFFF" d="M40.919,30.926c0.997-2.461,1.556-5.141,1.556-7.956c0-7.089-3.482-13.347-8.817-17.204v6.99
			L40.919,30.926z"/>
		<path fill="#FFFFFF" d="M31.768,4.539c-3.105-1.778-6.694-2.811-10.529-2.811c-0.08,0-0.159,0.011-0.241,0.013v11.696
			l-2.587,6.266h5.194v1.89H17.63l-0.886,2.145h6.86v1.89h-7.641l-0.865,2.099h8.506v1.89h-9.291L12.751,33.4h26.973
			c0.028-0.051,0.063-0.096,0.091-0.148L31.768,13.12V4.539z"/>
		<path fill="#FFFFFF" d="M19.107,1.837C8.38,2.904,0,11.953,0,22.97c0,6.776,3.187,12.798,8.128,16.687l10.979-26.594V1.837z"/>
		<path fill="#ED1F80" d="M39.724,33.4H12.751l1.562-3.785h9.291v-1.89h-8.506l0.865-2.099h7.641v-1.89h-6.86l0.886-2.145h5.975
			v-1.89H18.41l2.587-6.266V1.741c-0.637,0.008-1.269,0.033-1.89,0.096v11.226L8.128,39.656c3.611,2.84,8.158,4.552,13.11,4.552
			C29.17,44.208,36.078,39.847,39.724,33.4z"/>
		<path fill="#ED1F80" d="M31.768,13.12l8.047,20.132c0.415-0.748,0.78-1.525,1.104-2.326l-7.262-18.17v-6.99
			c-0.606-0.441-1.235-0.852-1.89-1.227V13.12z"/>
	</g>
</g>
</svg>
