<?xml version="1.0" encoding="utf-8"?>
<!-- Generator: Adobe Illustrator 16.0.0, SVG Export Plug-In . SVG Version: 6.00 Build 0)  -->
<!DOCTYPE svg PUBLIC "-//W3C//DTD SVG 1.1//EN" "http://www.w3.org/Graphics/SVG/1.1/DTD/svg11.dtd">
<svg version="1.1" id="Layer_1" xmlns="http://www.w3.org/2000/svg" xmlns:xlink="http://www.w3.org/1999/xlink" x="0px" y="0px"
	 width="242px" height="48.518px" viewBox="0 0 242 48.518" enable-background="new 0 0 242 48.518" xml:space="preserve">
<path fill="#FF0080" d="M0,24.263c0,13.395,10.859,24.253,24.257,24.253c13.394,0,24.254-10.859,24.254-24.253
	C48.512,10.857,37.651,0,24.257,0C10.859,0,0,10.857,0,24.263z"/>
<path fill="#FFFFFF" d="M29.973,17.077V7.176h1.122V5.232H17.628v1.943h1.121v10.137L9.381,39.999l3.512,3.325h22.839l3.4-3.328
	L29.973,17.077z M15.053,30.083h7.165v-1.459h-6.562l0.668-1.619h5.894v-1.458h-5.292l0.684-1.652h4.608v-1.458H18.21l1.997-4.833
	V7.236h8.306V17.36l6.254,15.642H13.849"/>
<g>
	<path fill="#AFAFAF" d="M67.39,18.484c-0.477-2.322-2.382-3.632-4.614-3.632c-2.292,0-3.959,1.012-3.959,2.857
		c0,1.905,2.56,2.531,5.299,3.424c2.977,0.953,6.698,2.144,6.698,6.312c0,3.602-3.125,6.222-7.77,6.222
		c-4.436,0-7.353-2.561-8.246-6.191l3.215-0.863c0.327,2.173,2.262,4.079,5.209,4.079c2.561,0,4.198-1.34,4.198-3.097
		c0-2.471-3.394-3.215-6.312-4.168c-2.471-0.833-5.656-2.023-5.656-5.597c0-3.245,3.126-5.835,7.443-5.835
		c3.84,0,6.876,2.292,7.651,5.626L67.39,18.484z"/>
	<path fill="#AFAFAF" d="M91.826,12.411v11.997c0,5.865-3.423,9.259-8.931,9.259c-5.537,0-8.931-3.394-8.931-9.259V12.411h3.304
		v12.116c0,3.751,1.995,6.073,5.626,6.073c3.662,0,5.626-2.322,5.626-6.073V12.411H91.826z"/>
	<path fill="#AFAFAF" d="M108.284,33.25l-4.615-7.441c-0.178,0-0.387,0-0.565,0h-3.513v7.441h-3.305V12.411h6.817
		c5.001,0,8.008,2.59,8.008,6.698c0,2.917-1.519,5.061-4.168,6.073l5.031,8.067H108.284z M103.491,22.711
		c2.828,0,4.197-1.548,4.197-3.602c0-2.145-1.458-3.603-4.197-3.603h-3.9v7.204H103.491z"/>
	<path fill="#FF0080" d="M114.917,32.148c0-0.863,0.685-1.519,1.519-1.519c0.863,0,1.518,0.686,1.518,1.519
		s-0.685,1.519-1.518,1.519C115.572,33.667,114.917,32.982,114.917,32.148z"/>
	<path fill="#AFAFAF" d="M136.884,28.904h-11.133l-2.114,4.346h-3.662l10.241-20.839h2.203l10.24,20.839h-3.662L136.884,28.904z
		 M135.367,25.808l-3.811-7.859l-0.238-0.655l-0.238,0.655l-3.811,7.859H135.367z"/>
	<path fill="#AFAFAF" d="M157.718,12.411v3.096h-6.758V33.25h-3.305V15.507h-6.697v-3.096H157.718z"/>
	<path fill="#AFAFAF" d="M177.333,12.411v3.096h-6.758V33.25h-3.306V15.507h-6.698v-3.096H177.333z"/>
	<path fill="#AFAFAF" d="M192.541,28.904h-11.133l-2.115,4.346h-3.662l10.242-20.839h2.203l10.24,20.839h-3.662L192.541,28.904z
		 M191.023,25.808l-3.811-7.859l-0.238-0.655l-0.238,0.655l-3.811,7.859H191.023z"/>
	<path fill="#AFAFAF" d="M215.399,18.365c-1.28-1.935-3.603-3.126-6.103-3.126c-4.316,0-7.383,3.096-7.383,7.591
		c0,4.555,3.186,7.562,7.383,7.562c2.797,0,5.299-1.458,6.49-3.691l3.303,0.893c-1.756,3.691-5.447,6.073-9.793,6.073
		c-5.983,0-10.807-4.555-10.807-10.836s4.823-10.836,10.807-10.836c4.078,0,7.591,2.173,9.467,5.479L215.399,18.365z"/>
	<path fill="#AFAFAF" d="M239.208,12.411l-8.543,8.574l9.377,12.265h-4.107l-7.562-9.973l-2.828,2.828v7.145h-3.305V12.411h3.305
		v9.735l9.795-9.735H239.208z"/>
</g>
</svg>
