<?xml version="1.0" encoding="utf-8"?>
<!-- Generator: Adobe Illustrator 16.0.0, SVG Export Plug-In . SVG Version: 6.00 Build 0)  -->
<!DOCTYPE svg PUBLIC "-//W3C//DTD SVG 1.1//EN" "http://www.w3.org/Graphics/SVG/1.1/DTD/svg11.dtd">
<svg version="1.1" id="Layer_1" xmlns="http://www.w3.org/2000/svg" xmlns:xlink="http://www.w3.org/1999/xlink" x="0px" y="0px"
	 width="271px" height="47.222px" viewBox="0 0 271 47.222" enable-background="new 0 0 271 47.222" xml:space="preserve">
<g>
	<g>
		<g>
			<path fill="#FFFFFF" d="M22.787,6.987c11.327,0,20.512,8.622,20.512,20.512s-9.185,20.512-20.512,20.512
				c-11.326,0-20.455-8.622-20.455-20.512S11.46,6.987,22.787,6.987z M22.787,41.868c8.058,0,14.032-5.86,14.032-14.369
				c0-8.622-5.974-14.369-14.032-14.369c-8.114,0-13.975,5.747-13.975,14.369C8.812,36.008,14.672,41.868,22.787,41.868z"/>
			<path fill="#FFFFFF" d="M63.694,7.776c9.298,0,14.933,4.846,14.933,12.904c0,8.058-5.635,12.904-14.933,12.904H56.82v13.637
				h-6.255V7.776H63.694z M63.582,27.725c5.522,0,8.565-2.648,8.565-7.044c0-4.564-3.268-7.044-8.565-7.044H56.82v14.088H63.582z"/>
			<path fill="#FFFFFF" d="M112.099,41.361v5.86H84.656V7.776h27.105v5.86h-20.85v10.256h16.624v5.691H90.911v11.777H112.099z"/>
			<path fill="#FFFFFF" d="M154.528,7.776v39.445h-5.86l-20.625-27.104l-0.789-1.296l0.113,1.521v26.879h-6.255V7.776h5.86
				l20.681,26.879l0.733,1.409l-0.113-1.635V7.776H154.528z"/>
			<path fill="#ED1F80" d="M190.646,41.361v5.86h-26.541V7.776h6.255v33.585H190.646z"/>
			<path fill="#ED1F80" d="M225.356,38.994h-21.075l-4,8.228h-6.932l19.385-39.445h4.17l19.385,39.445h-6.931L225.356,38.994z
				 M222.482,33.134l-7.213-14.876l-0.451-1.24l-0.451,1.24l-7.213,14.876H222.482z"/>
			<path fill="#ED1F80" d="M256.686,7.776c6.875,0,11.552,4.227,11.552,9.974c0,3.889-2.874,7.213-5.748,8.002
				c3.888,0.62,8.171,4.564,8.171,9.692c0,6.818-4.677,11.777-13.412,11.777h-16.173V7.776H256.686z M255.446,23.667
				c3.888,0,6.537-2.197,6.537-5.354c0-3.212-2.648-5.297-6.537-5.297h-8.115v10.65H255.446z M256.742,41.981
				c4.282,0,7.438-2.536,7.438-6.537c0-3.944-3.438-6.593-7.607-6.593h-9.242v13.13H256.742z"/>
		</g>
	</g>
	<g>
		<path fill="none" d="M35.706,8.842V4.303H24.935v1.741c0.083-0.002,0.161-0.013,0.241-0.013C29.011,6.032,32.6,7.064,35.706,8.842
			z"/>
		<path fill="none" d="M43.81,37.704l-0.057-0.148c-0.027,0.053-0.062,0.098-0.091,0.148H43.81z"/>
		<path fill="#FFFFFF" d="M44.857,35.229c0.997-2.461,1.556-5.141,1.556-7.956c0-7.089-3.482-13.347-8.817-17.204v6.99
			L44.857,35.229z"/>
		<path fill="#FFFFFF" d="M35.706,8.842C32.6,7.064,29.011,6.032,25.176,6.032c-0.08,0-0.159,0.011-0.241,0.013v11.696l-2.587,6.266
			h5.194v1.89h-5.975l-0.886,2.145h6.86v1.89h-7.641l-0.865,2.099h8.506v1.89h-9.291l-1.562,3.785h26.973
			c0.028-0.051,0.063-0.096,0.091-0.148l-8.047-20.132V8.842z"/>
		<path fill="#FFFFFF" d="M23.045,6.14C12.318,7.208,3.938,16.256,3.938,27.273c0,6.776,3.187,12.798,8.128,16.687l10.979-26.594
			V6.14z"/>
		<path fill="#ED1F80" d="M43.662,37.704H16.689l1.562-3.785h9.291v-1.89h-8.506l0.865-2.099h7.641v-1.89h-6.86l0.886-2.145h5.975
			v-1.89h-5.194l2.587-6.266V6.044c-0.637,0.008-1.269,0.033-1.89,0.096v11.226L12.066,43.959c3.611,2.84,8.158,4.552,13.11,4.552
			C33.108,48.511,40.016,44.15,43.662,37.704z"/>
		<path fill="#ED1F80" d="M35.706,17.423l8.047,20.132c0.415-0.748,0.78-1.525,1.104-2.326l-7.262-18.17v-6.99
			c-0.606-0.441-1.235-0.852-1.89-1.227V17.423z"/>
	</g>
</g>
</svg>
