<?xml version="1.0" encoding="utf-8"?>
<!-- Generator: Adobe Illustrator 16.0.0, SVG Export Plug-In . SVG Version: 6.00 Build 0)  -->
<!DOCTYPE svg PUBLIC "-//W3C//DTD SVG 1.1//EN" "http://www.w3.org/Graphics/SVG/1.1/DTD/svg11.dtd">
<svg version="1.1" id="Layer_1" xmlns="http://www.w3.org/2000/svg" xmlns:xlink="http://www.w3.org/1999/xlink" x="0px" y="0px"
	 width="88.924px" height="88.932px" viewBox="0 0 88.924 88.932" enable-background="new 0 0 88.924 88.932" xml:space="preserve">
<path fill="#FFFFFF" d="M0,44.475c0,24.551,19.905,44.458,44.464,44.458c24.552,0,44.46-19.906,44.46-44.458
	C88.924,19.9,69.016,0,44.464,0C19.905,0,0,19.9,0,44.475z"/>
<g>
	<path fill="#808080" d="M55.446,30.667V11.642h2.157V7.904H31.725v3.738h2.154v19.475l-18,43.593l6.75,6.387h43.885l6.534-6.395
		L55.446,30.667z M26.777,55.656h13.767v-2.805H27.937l1.282-3.111h11.325v-2.804H30.376l1.313-3.172h8.854v-2.802h-7.699
		l3.836-9.289V11.755h15.96v19.452l12.017,30.055H24.465"/>
</g>
</svg>
