<?xml version="1.0" encoding="utf-8"?>
<!-- Generator: Adobe Illustrator 16.0.0, SVG Export Plug-In . SVG Version: 6.00 Build 0)  -->
<!DOCTYPE svg PUBLIC "-//W3C//DTD SVG 1.1//EN" "http://www.w3.org/Graphics/SVG/1.1/DTD/svg11.dtd">
<svg version="1.1" id="Layer_1" xmlns="http://www.w3.org/2000/svg" xmlns:xlink="http://www.w3.org/1999/xlink" x="0px" y="0px"
	 width="20.674px" height="20.673px" viewBox="0 0 20.674 20.673" enable-background="new 0 0 20.674 20.673" xml:space="preserve">
<path fill="#414141" d="M17.229,0H3.445C1.551,0,0,1.552,0,3.447v13.781c0,1.896,1.551,3.445,3.445,3.445h13.783
	c1.895,0,3.445-1.549,3.445-3.445V3.447C20.674,1.552,19.123,0,17.229,0z M5.168,5.169h10.336c0.185,0,0.365,0.039,0.529,0.115
	l-5.697,6.645L4.641,5.284C4.805,5.208,4.984,5.169,5.168,5.169z M3.877,14.214V6.461c0-0.027,0-0.054,0.002-0.08L7.668,10.8
	l-3.746,3.746C3.893,14.44,3.877,14.328,3.877,14.214z M15.504,15.506H5.168c-0.113,0-0.228-0.016-0.334-0.046l3.678-3.676
	l1.824,2.131l1.826-2.131l3.678,3.676C15.729,15.491,15.619,15.506,15.504,15.506z M16.797,14.214c0,0.113-0.016,0.226-0.045,0.332
	L13.006,10.8l3.789-4.419c0.002,0.026,0.002,0.053,0.002,0.08V14.214z"/>
</svg>
