<?xml version="1.0" encoding="utf-8"?>
<!-- Generator: Adobe Illustrator 16.0.0, SVG Export Plug-In . SVG Version: 6.00 Build 0)  -->
<!DOCTYPE svg PUBLIC "-//W3C//DTD SVG 1.1//EN" "http://www.w3.org/Graphics/SVG/1.1/DTD/svg11.dtd">
<svg version="1.1" id="Layer_1" xmlns="http://www.w3.org/2000/svg" xmlns:xlink="http://www.w3.org/1999/xlink" x="0px" y="0px"
	 width="20.674px" height="20.673px" viewBox="0 0 20.674 20.673" enable-background="new 0 0 20.674 20.673" xml:space="preserve">
<path fill="#414141" d="M17.227,0H3.447C1.551,0,0,1.552,0,3.447v13.781c0,1.896,1.551,3.445,3.447,3.445h13.779
	c1.896,0,3.447-1.549,3.447-3.445V3.447C20.674,1.552,19.123,0,17.227,0z M16.918,6.902c0.008,0.148,0.01,0.297,0.01,0.446
	c0,4.567-3.416,9.835-9.662,9.835c-1.918,0-3.703-0.572-5.205-1.553c0.263,0.031,0.533,0.047,0.809,0.047
	c1.592,0,3.055-0.553,4.217-1.479c-1.484-0.027-2.738-1.027-3.172-2.4c0.207,0.041,0.42,0.062,0.639,0.062
	c0.311,0,0.611-0.043,0.895-0.121c-1.553-0.318-2.725-1.717-2.725-3.39c0-0.015,0-0.028,0.002-0.042
	C3.184,8.566,3.707,8.722,4.262,8.74C3.352,8.12,2.75,7.062,2.75,5.862c0-0.632,0.168-1.226,0.461-1.736
	c1.676,2.091,4.178,3.467,7,3.61c-0.057-0.252-0.088-0.516-0.088-0.786c0-1.909,1.523-3.457,3.398-3.457
	c0.977,0,1.859,0.42,2.479,1.091c0.773-0.154,1.5-0.442,2.155-0.838c-0.253,0.807-0.792,1.484-1.491,1.913
	c0.686-0.084,1.342-0.271,1.949-0.544C18.158,5.806,17.582,6.416,16.918,6.902z"/>
</svg>
