<?xml version="1.0" encoding="utf-8"?>
<!-- Generator: Adobe Illustrator 16.0.0, SVG Export Plug-In . SVG Version: 6.00 Build 0)  -->
<!DOCTYPE svg PUBLIC "-//W3C//DTD SVG 1.1//EN" "http://www.w3.org/Graphics/SVG/1.1/DTD/svg11.dtd">
<svg version="1.1" id="Layer_1" xmlns="http://www.w3.org/2000/svg" xmlns:xlink="http://www.w3.org/1999/xlink" x="0px" y="0px"
	 width="20.674px" height="20.673px" viewBox="0 0 20.674 20.673" enable-background="new 0 0 20.674 20.673" xml:space="preserve">
<path fill="#414141" d="M17.226,0H3.448C1.553,0,0,1.552,0,3.447v13.781c0,1.896,1.553,3.445,3.447,3.445h13.778
	c1.896,0,3.447-1.549,3.447-3.445V3.447C20.673,1.552,19.122,0,17.226,0z M16.409,8.846c-0.684,3.862-4.514,7.132-5.666,7.878
	c-1.152,0.748-2.203-0.297-2.586-1.088c-0.436-0.904-1.742-5.793-2.086-6.198c-0.342-0.403-1.37,0.405-1.37,0.405l-0.5-0.654
	c0,0,2.089-2.492,3.677-2.804c1.684-0.329,1.682,2.586,2.086,4.206c0.393,1.566,0.654,2.461,0.996,2.461
	c0.344,0,0.998-0.873,1.714-2.212c0.717-1.341-0.031-2.525-1.433-1.683C11.802,5.792,17.095,4.985,16.409,8.846z"/>
</svg>
