<?xml version="1.0" encoding="utf-8"?>
<!-- Generator: Adobe Illustrator 16.0.0, SVG Export Plug-In . SVG Version: 6.00 Build 0)  -->
<!DOCTYPE svg PUBLIC "-//W3C//DTD SVG 1.1//EN" "http://www.w3.org/Graphics/SVG/1.1/DTD/svg11.dtd">
<svg version="1.1" id="Layer_1" xmlns="http://www.w3.org/2000/svg" xmlns:xlink="http://www.w3.org/1999/xlink" x="0px" y="0px"
	 width="20.674px" height="20.673px" viewBox="0 0 20.674 20.673" enable-background="new 0 0 20.674 20.673" xml:space="preserve">
<g>
	<path fill="#414141" d="M17.229,0H3.447C1.551,0,0,1.552,0,3.447v13.781c0,1.896,1.551,3.445,3.447,3.445h13.781
		c1.896,0,3.445-1.549,3.445-3.445V3.447C20.674,1.552,19.125,0,17.229,0z"/>
	<path fill="#FFFFFF" d="M14.713,5.089H5.965C4.52,5.089,3.34,6.27,3.34,7.713v5.247c0,1.445,1.18,2.627,2.625,2.627h8.748
		c1.441,0,2.623-1.182,2.623-2.627V7.713C17.336,6.27,16.154,5.089,14.713,5.089z M8.588,13.837V6.838l4.373,3.5L8.588,13.837z"/>
</g>
</svg>
